<svg id="svg" version="1.1" xmlns="http://www.w3.org/2000/svg" xmlns:xlink="http://www.w3.org/1999/xlink" width="400" height="400" viewBox="0, 0, 400,400"><g id="svgg"><path id="path0" d="M97.200 79.398 L 97.200 91.596 132.700 91.698 L 168.200 91.800 168.200 98.000 L 168.200 104.200 132.700 104.302 L 97.200 104.404 97.200 134.602 L 97.200 164.800 144.800 164.800 L 192.400 164.800 192.400 116.000 L 192.400 67.200 144.800 67.200 L 97.200 67.200 97.200 79.398 M205.385 67.700 C 205.280 67.975,205.240 89.890,205.297 116.400 L 205.400 164.600 253.100 164.702 L 300.800 164.803 300.800 152.604 L 300.800 140.404 265.300 140.302 L 229.800 140.200 229.698 104.269 C 229.611 73.823,229.509 68.252,229.026 67.769 C 228.241 66.983,205.682 66.917,205.385 67.700 M168.315 133.200 C 168.379 136.170,168.330 139.005,168.208 139.500 L 167.985 140.400 144.792 140.400 L 121.600 140.400 121.600 133.997 L 121.600 127.594 144.900 127.697 L 168.200 127.800 168.315 133.200 M97.200 223.806 L 97.200 272.012 109.300 271.906 L 121.400 271.800 121.600 235.800 L 121.800 199.800 126.000 199.680 C 128.310 199.613,130.785 199.667,131.500 199.798 L 132.800 200.036 132.800 203.595 C 132.800 205.552,132.620 207.264,132.400 207.400 C 131.837 207.748,131.851 270.174,132.414 271.226 C 132.951 272.229,156.327 272.452,157.149 271.462 C 157.469 271.076,157.625 260.828,157.698 235.362 L 157.800 199.800 162.641 199.688 C 166.368 199.602,167.587 199.703,167.939 200.127 C 168.272 200.528,168.423 210.312,168.498 236.238 L 168.600 271.800 180.500 271.906 L 192.400 272.012 192.400 223.806 L 192.400 175.600 144.800 175.600 L 97.200 175.600 97.200 223.806 M205.294 187.692 L 205.400 199.783 240.800 199.792 L 276.200 199.800 276.200 205.600 L 276.200 211.400 240.800 211.600 L 205.400 211.800 205.400 241.800 L 205.400 271.800 253.100 271.902 L 300.800 272.003 300.800 223.802 L 300.800 175.600 252.994 175.600 L 205.188 175.600 205.294 187.692 M276.400 242.203 L 276.400 248.406 253.100 248.303 L 229.800 248.200 229.688 242.619 C 229.627 239.550,229.666 236.805,229.776 236.519 C 229.936 236.102,234.527 236.000,253.187 236.000 L 276.400 236.000 276.400 242.203 M109.800 315.200 C 109.664 315.420,109.135 315.600,108.625 315.600 C 108.115 315.600,107.474 315.870,107.200 316.200 C 106.926 316.530,106.475 316.800,106.197 316.800 C 105.919 316.800,105.397 317.250,105.037 317.800 C 104.676 318.350,104.220 318.800,104.022 318.800 C 103.629 318.800,101.200 321.118,101.200 321.493 C 101.200 321.620,100.750 322.314,100.200 323.036 C 99.650 323.757,99.200 324.607,99.200 324.924 C 99.200 325.242,98.930 325.726,98.600 326.000 C 98.270 326.274,98.000 327.016,98.000 327.649 C 98.000 328.282,97.820 328.800,97.600 328.800 C 97.357 328.800,97.200 330.592,97.200 333.376 C 97.200 335.996,97.371 338.058,97.600 338.200 C 97.820 338.336,98.000 338.955,98.000 339.575 C 98.000 340.195,98.270 340.926,98.600 341.200 C 98.930 341.474,99.200 342.036,99.200 342.449 C 99.200 342.862,99.368 343.200,99.573 343.200 C 99.778 343.200,100.067 343.580,100.214 344.044 C 100.577 345.187,105.794 350.400,106.575 350.400 C 106.919 350.400,107.200 350.580,107.200 350.800 C 107.200 351.020,107.727 351.200,108.371 351.200 C 109.016 351.200,109.813 351.470,110.143 351.800 C 110.609 352.266,111.807 352.400,115.522 352.400 C 119.283 352.400,120.408 352.272,120.800 351.800 C 121.074 351.470,121.816 351.200,122.449 351.200 C 123.082 351.200,123.600 351.020,123.600 350.800 C 123.600 350.580,123.929 350.400,124.330 350.400 C 125.074 350.400,126.794 348.855,126.808 348.174 C 126.812 347.968,127.712 346.852,128.808 345.694 C 129.904 344.536,130.800 343.331,130.800 343.018 C 130.800 342.704,130.980 342.336,131.200 342.200 C 131.420 342.064,131.600 341.553,131.600 341.065 C 131.600 340.577,131.886 339.770,132.236 339.270 C 133.220 337.865,132.698 337.200,130.613 337.200 C 129.616 337.200,128.800 337.020,128.800 336.800 C 128.800 336.580,128.170 336.400,127.400 336.400 C 126.164 336.400,126.000 336.520,126.000 337.427 C 126.000 337.991,125.550 339.043,125.000 339.764 C 124.450 340.486,124.000 341.252,124.000 341.468 C 124.000 342.247,120.956 344.400,119.854 344.400 C 119.548 344.400,119.074 344.670,118.800 345.000 C 118.439 345.435,117.485 345.600,115.338 345.600 C 113.073 345.600,112.321 345.459,112.145 345.000 C 112.013 344.657,111.416 344.400,110.753 344.400 C 109.296 344.400,106.000 341.448,106.000 340.143 C 106.000 339.661,105.812 339.204,105.583 339.128 C 104.445 338.748,104.396 330.173,105.520 328.126 C 105.784 327.646,106.000 326.959,106.000 326.600 C 106.000 325.467,110.009 322.407,111.500 322.403 C 111.995 322.401,112.400 322.220,112.400 322.000 C 112.400 321.772,113.592 321.600,115.176 321.600 C 116.703 321.600,118.064 321.780,118.200 322.000 C 118.336 322.220,118.865 322.400,119.375 322.400 C 119.885 322.400,120.526 322.670,120.800 323.000 C 121.074 323.330,121.515 323.600,121.779 323.600 C 122.865 323.600,126.000 328.397,126.000 330.060 C 126.000 330.965,127.290 331.056,128.000 330.200 C 128.279 329.863,129.151 329.600,129.987 329.600 C 131.968 329.600,133.064 328.502,132.210 327.372 C 131.888 326.947,131.620 326.195,131.613 325.700 C 131.606 325.205,131.420 324.800,131.200 324.800 C 130.980 324.800,130.800 324.483,130.800 324.096 C 130.800 323.709,130.350 322.907,129.800 322.313 C 129.250 321.720,128.800 321.027,128.800 320.773 C 128.800 320.116,125.351 316.800,124.668 316.800 C 124.354 316.800,123.874 316.530,123.600 316.200 C 123.326 315.870,122.595 315.600,121.975 315.600 C 121.355 315.600,120.736 315.420,120.600 315.200 C 120.456 314.967,118.204 314.800,115.200 314.800 C 112.196 314.800,109.944 314.967,109.800 315.200 M147.867 315.867 C 147.720 316.013,147.600 316.463,147.600 316.867 C 147.600 317.270,147.420 317.600,147.200 317.600 C 146.980 317.600,146.800 317.938,146.800 318.351 C 146.800 318.764,146.530 319.326,146.200 319.600 C 145.870 319.874,145.600 320.594,145.600 321.200 C 145.600 321.806,145.330 322.526,145.000 322.800 C 144.670 323.074,144.400 323.636,144.400 324.049 C 144.400 324.462,144.220 324.800,144.000 324.800 C 143.780 324.800,143.600 325.231,143.600 325.757 C 143.600 326.284,143.330 326.818,143.000 326.945 C 142.670 327.071,142.400 327.602,142.400 328.124 C 142.400 329.021,140.846 332.366,139.206 335.000 C 138.795 335.660,138.445 336.611,138.429 337.113 C 138.413 337.614,138.130 338.129,137.800 338.255 C 137.470 338.382,137.200 338.816,137.200 339.219 C 137.200 339.623,137.020 340.064,136.800 340.200 C 136.580 340.336,136.400 340.775,136.400 341.175 C 136.400 341.575,136.130 342.126,135.800 342.400 C 135.470 342.674,135.200 343.265,135.200 343.715 C 135.200 344.730,133.961 347.600,133.523 347.600 C 133.345 347.600,133.200 348.031,133.200 348.557 C 133.200 349.084,132.930 349.618,132.600 349.745 C 130.563 350.526,132.100 351.200,135.920 351.200 C 139.928 351.200,140.800 350.909,140.800 349.569 C 140.800 349.200,141.070 348.674,141.400 348.400 C 141.730 348.126,142.000 347.406,142.000 346.800 C 142.000 346.194,142.270 345.474,142.600 345.200 C 142.930 344.926,143.200 344.364,143.200 343.951 C 143.200 343.242,143.635 343.200,150.923 343.200 L 158.646 343.200 159.349 344.900 C 159.736 345.835,160.310 347.078,160.626 347.662 C 160.942 348.246,161.200 349.024,161.200 349.390 C 161.200 350.776,162.225 351.200,165.571 351.200 C 168.533 351.200,168.800 351.134,168.800 350.400 C 168.800 349.960,168.620 349.600,168.400 349.600 C 168.178 349.600,168.000 348.529,168.000 347.187 C 168.000 345.412,167.842 344.714,167.400 344.545 C 167.070 344.418,166.800 343.884,166.800 343.357 C 166.800 342.831,166.655 342.400,166.477 342.400 C 166.039 342.400,164.800 339.530,164.800 338.515 C 164.800 338.065,164.530 337.474,164.200 337.200 C 163.870 336.926,163.600 336.364,163.600 335.951 C 163.600 335.538,163.420 335.200,163.200 335.200 C 162.980 335.200,162.800 334.851,162.800 334.424 C 162.800 333.997,162.629 333.541,162.419 333.412 C 162.073 333.198,160.444 329.960,158.893 326.400 C 158.557 325.630,158.129 324.687,157.941 324.305 C 157.754 323.923,157.600 323.268,157.600 322.848 C 157.600 322.429,157.330 321.982,157.000 321.855 C 156.670 321.729,156.400 321.169,156.400 320.613 C 156.400 320.056,156.220 319.600,156.000 319.600 C 155.780 319.600,155.600 319.262,155.600 318.849 C 155.600 318.436,155.330 317.874,155.000 317.600 C 154.670 317.326,154.400 316.764,154.400 316.351 C 154.400 315.587,148.578 315.156,147.867 315.867 M172.267 315.867 C 172.120 316.013,172.000 324.023,172.000 333.667 L 172.000 351.200 175.600 351.200 L 179.200 351.200 179.200 344.600 L 179.200 338.000 181.225 338.000 C 183.383 338.000,188.800 342.544,188.800 344.355 C 188.800 344.743,189.250 345.483,189.800 346.000 C 190.350 346.517,190.800 347.108,190.800 347.314 C 190.800 347.520,191.601 348.478,192.581 349.444 L 194.362 351.200 199.135 351.200 L 203.907 351.200 199.354 346.544 C 196.849 343.983,194.800 341.697,194.800 341.463 C 194.800 341.229,194.243 340.464,193.563 339.762 C 192.110 338.263,192.436 336.800,194.223 336.800 C 195.947 336.800,200.800 333.245,200.800 331.983 C 200.800 331.606,201.070 331.074,201.400 330.800 C 201.851 330.426,202.000 329.418,202.000 326.738 C 202.000 323.940,201.871 323.125,201.400 322.945 C 201.070 322.818,200.800 322.378,200.800 321.968 C 200.800 320.541,196.993 317.297,194.500 316.598 C 194.005 316.460,193.600 316.178,193.600 315.973 C 193.600 315.548,172.689 315.444,172.267 315.867 M207.072 315.861 C 206.922 316.011,206.800 324.023,206.800 333.667 L 206.800 351.200 220.000 351.200 L 233.200 351.200 233.200 348.280 C 233.200 344.193,233.760 344.400,222.720 344.400 L 213.200 344.400 213.200 340.200 L 213.200 336.000 222.400 336.000 L 231.600 336.000 231.600 333.243 C 231.600 329.781,232.264 330.000,221.752 330.000 L 213.170 330.000 213.285 326.300 L 213.400 322.600 223.116 322.493 L 232.832 322.386 232.716 319.093 L 232.600 315.800 219.972 315.694 C 213.027 315.636,207.222 315.711,207.072 315.861 M239.067 315.867 C 238.920 316.013,238.800 324.023,238.800 333.667 L 238.800 351.200 252.600 351.200 L 266.400 351.200 266.400 348.476 C 266.400 344.212,266.938 344.424,255.800 344.304 L 246.200 344.200 246.200 340.200 L 246.200 336.200 255.400 336.000 L 264.600 335.800 264.704 333.600 C 264.870 330.083,265.255 330.227,255.115 330.000 L 246.200 329.800 246.080 327.008 C 246.013 325.473,246.062 323.808,246.187 323.308 L 246.415 322.400 256.008 322.400 L 265.600 322.400 265.600 319.000 L 265.600 315.600 252.467 315.600 C 245.243 315.600,239.213 315.720,239.067 315.867 M271.467 315.867 C 271.320 316.013,271.200 324.023,271.200 333.667 L 271.200 351.200 274.590 351.200 L 277.980 351.200 278.090 344.700 L 278.200 338.200 280.235 338.081 L 282.271 337.963 286.327 342.221 C 288.558 344.563,290.792 347.317,291.292 348.340 C 292.641 351.103,292.809 351.173,298.156 351.187 L 302.912 351.200 298.956 347.150 C 296.780 344.922,294.685 342.812,294.300 342.461 C 293.915 342.110,293.600 341.584,293.600 341.292 C 293.600 341.000,293.136 340.332,292.569 339.806 C 291.086 338.432,291.361 337.042,293.148 336.871 C 293.889 336.800,294.699 336.572,294.948 336.364 C 295.197 336.156,296.162 335.450,297.094 334.795 C 300.032 332.729,300.800 331.041,300.800 326.651 C 300.800 323.673,300.675 322.837,300.200 322.655 C 299.870 322.529,299.600 322.115,299.600 321.736 C 299.600 320.717,295.332 316.800,294.222 316.800 C 293.714 316.800,293.074 316.530,292.800 316.200 C 292.278 315.571,272.078 315.255,271.467 315.867 M192.757 323.789 C 195.152 326.197,194.371 331.200,191.600 331.200 C 191.160 331.200,190.800 331.380,190.800 331.600 C 190.800 331.848,188.600 332.000,185.000 332.000 L 179.200 332.000 179.200 327.467 C 179.200 321.918,178.596 322.398,185.567 322.413 L 191.400 322.425 192.757 323.789 M292.000 324.000 C 293.861 326.349,293.804 328.732,291.842 330.638 L 290.418 332.021 284.309 331.910 L 278.200 331.800 278.085 327.627 C 277.929 321.931,277.348 322.400,284.554 322.400 L 290.733 322.400 292.000 324.000 M151.600 327.236 C 151.600 327.924,151.853 328.522,152.200 328.655 C 152.530 328.782,152.800 329.316,152.800 329.843 C 152.800 330.369,152.945 330.800,153.123 330.800 C 153.466 330.800,154.800 333.578,154.800 334.292 C 154.800 334.524,155.090 334.826,155.445 334.962 C 157.319 335.681,155.084 336.400,150.975 336.400 C 146.900 336.400,145.787 336.053,146.755 335.085 C 147.000 334.840,147.206 334.001,147.213 333.220 C 147.220 332.439,147.490 331.451,147.813 331.024 C 148.136 330.596,148.400 329.921,148.400 329.524 C 148.400 329.126,148.580 328.800,148.800 328.800 C 149.020 328.800,149.200 328.424,149.200 327.964 C 149.200 327.100,150.765 325.531,151.298 325.861 C 151.464 325.963,151.600 326.582,151.600 327.236 " stroke="none" fill="#040404" fill-rule="evenodd"></path><path id="path1" d="M0.000 200.000 L 0.000 400.000 200.000 400.000 L 400.000 400.000 400.000 200.000 L 400.000 0.000 200.000 0.000 L 0.000 0.000 0.000 200.000 M193.000 116.000 L 193.000 165.000 144.800 165.000 L 96.600 165.000 96.497 134.844 C 96.423 112.899,96.518 104.540,96.846 104.144 C 97.221 103.693,103.298 103.600,132.449 103.600 L 167.600 103.600 167.600 97.800 L 167.600 92.000 150.500 92.007 C 141.095 92.011,125.300 92.193,115.400 92.412 C 98.637 92.782,97.366 92.762,96.900 92.128 C 96.361 91.393,96.140 67.593,96.668 67.065 C 96.816 66.918,118.551 66.843,144.968 66.898 L 193.000 67.000 193.000 116.000 M230.010 67.826 C 230.253 68.465,230.400 82.209,230.400 104.224 L 230.400 139.596 265.700 139.698 L 301.000 139.800 301.106 152.500 L 301.211 165.200 253.070 165.200 L 204.928 165.200 204.464 164.181 C 203.842 162.816,203.793 68.733,204.414 67.574 C 204.810 66.834,205.378 66.800,217.224 66.800 L 229.620 66.800 230.010 67.826 M122.000 133.800 L 122.000 139.600 144.800 139.600 L 167.600 139.600 167.600 133.800 L 167.600 128.000 144.800 128.000 L 122.000 128.000 122.000 133.800 M193.000 223.600 L 193.000 272.200 180.400 272.200 L 167.800 272.200 167.698 236.300 L 167.596 200.400 162.800 200.400 L 158.004 200.400 157.902 236.300 L 157.800 272.200 144.800 272.200 L 131.800 272.200 131.698 236.300 L 131.596 200.400 126.798 200.400 L 122.000 200.400 122.000 236.406 L 122.000 272.411 109.300 272.306 L 96.600 272.200 96.498 224.043 C 96.424 188.703,96.517 175.741,96.849 175.341 C 97.226 174.886,105.179 174.814,145.150 174.898 L 193.000 175.000 193.000 223.600 M301.102 223.700 L 301.203 272.400 252.993 272.400 L 204.783 272.400 204.329 271.403 C 203.687 269.995,204.665 211.534,205.337 211.107 C 205.592 210.945,221.595 210.809,240.900 210.806 L 276.000 210.800 276.000 205.600 L 276.000 200.400 240.480 200.400 C 213.387 200.400,204.846 200.286,204.480 199.920 C 203.677 199.117,203.810 176.850,204.624 175.687 L 205.248 174.797 253.124 174.898 L 301.000 175.000 301.102 223.700 M230.400 242.003 L 230.400 247.607 253.100 247.503 L 275.800 247.400 275.911 241.900 L 276.023 236.400 253.211 236.400 L 230.400 236.400 230.400 242.003 M121.424 314.587 C 121.851 314.910,122.605 315.180,123.100 315.187 C 123.595 315.194,124.000 315.380,124.000 315.600 C 124.000 315.820,124.302 316.000,124.670 316.000 C 125.330 316.000,130.000 320.567,130.000 321.212 C 130.000 321.394,130.225 321.781,130.501 322.071 C 130.776 322.362,131.343 323.320,131.760 324.200 C 132.177 325.080,132.671 326.113,132.859 326.495 C 133.825 328.461,132.486 330.400,130.162 330.400 C 129.439 330.400,128.736 330.580,128.600 330.800 C 128.037 331.711,125.600 331.259,125.600 330.243 C 125.600 329.716,125.330 329.182,125.000 329.055 C 124.670 328.929,124.400 328.543,124.400 328.198 C 124.400 326.912,122.001 324.043,120.900 324.013 C 120.625 324.006,120.400 323.820,120.400 323.600 C 120.400 323.380,119.984 323.200,119.476 323.200 C 118.969 323.200,118.204 322.936,117.776 322.613 C 116.767 321.849,114.395 321.841,112.946 322.598 C 112.316 322.926,111.485 323.196,111.100 323.198 C 110.715 323.199,110.400 323.380,110.400 323.600 C 110.400 323.820,110.094 324.000,109.719 324.000 C 108.595 324.000,106.400 326.417,106.400 327.655 C 106.400 328.259,106.220 328.864,106.000 329.000 C 105.773 329.140,105.600 331.130,105.600 333.600 C 105.600 336.070,105.773 338.060,106.000 338.200 C 106.220 338.336,106.400 338.880,106.400 339.410 C 106.400 340.962,109.840 344.000,111.598 344.000 C 112.053 344.000,112.529 344.270,112.655 344.600 C 112.964 345.403,116.710 345.394,117.776 344.587 C 118.204 344.264,118.969 344.000,119.476 344.000 C 119.984 344.000,120.400 343.823,120.400 343.608 C 120.400 343.392,120.818 343.110,121.329 342.982 C 121.840 342.854,122.591 342.175,122.999 341.475 C 123.406 340.774,123.843 340.110,123.970 340.000 C 124.242 339.764,125.425 337.303,125.749 336.300 C 126.033 335.419,128.315 335.349,129.424 336.187 C 129.851 336.510,130.875 336.780,131.700 336.787 C 133.217 336.800,134.062 339.420,132.800 340.200 C 132.580 340.336,132.400 340.876,132.400 341.400 C 132.400 341.924,132.209 342.471,131.975 342.615 C 131.742 342.760,131.382 343.265,131.176 343.739 C 130.591 345.084,129.907 346.030,128.500 347.435 C 127.785 348.149,127.200 348.838,127.200 348.967 C 127.200 349.427,125.589 350.800,125.049 350.800 C 124.746 350.800,124.274 351.070,124.000 351.400 C 123.726 351.730,123.085 352.000,122.575 352.000 C 122.065 352.000,121.536 352.180,121.400 352.400 C 121.254 352.637,118.804 352.800,115.400 352.800 C 111.996 352.800,109.546 352.637,109.400 352.400 C 109.264 352.180,108.735 352.000,108.225 352.000 C 107.715 352.000,107.074 351.730,106.800 351.400 C 106.526 351.070,106.130 350.800,105.920 350.800 C 105.255 350.800,99.600 344.948,99.600 344.259 C 99.600 343.897,99.465 343.599,99.300 343.597 C 98.799 343.593,97.600 341.197,97.600 340.201 C 97.600 339.687,97.375 339.192,97.100 339.101 C 96.275 338.826,96.164 329.955,96.966 328.348 C 97.315 327.649,97.600 326.849,97.600 326.571 C 97.600 325.951,98.886 323.451,99.300 323.267 C 99.465 323.193,99.600 322.897,99.600 322.608 C 99.600 321.303,106.468 315.200,107.937 315.200 C 108.358 315.200,108.926 314.930,109.200 314.600 C 109.916 313.737,120.285 313.726,121.424 314.587 M155.300 316.435 C 155.685 317.111,156.000 318.010,156.000 318.432 C 156.000 318.855,156.145 319.200,156.323 319.200 C 156.664 319.200,158.000 321.976,158.000 322.685 C 158.000 322.915,158.270 323.326,158.600 323.600 C 158.930 323.874,159.200 324.515,159.200 325.025 C 159.200 325.535,159.380 326.064,159.600 326.200 C 159.820 326.336,160.000 326.867,160.000 327.381 C 160.000 327.894,160.270 328.418,160.600 328.545 C 160.930 328.671,161.200 329.231,161.200 329.787 C 161.200 330.344,161.380 330.800,161.600 330.800 C 161.820 330.800,162.000 331.166,162.000 331.613 C 162.000 332.059,162.270 332.529,162.600 332.655 C 162.930 332.782,163.200 333.204,163.200 333.594 C 163.200 333.983,163.470 334.526,163.800 334.800 C 164.130 335.074,164.400 335.636,164.400 336.049 C 164.400 336.462,164.580 336.800,164.800 336.800 C 165.020 336.800,165.200 337.318,165.200 337.951 C 165.200 338.584,165.470 339.326,165.800 339.600 C 166.130 339.874,166.400 340.425,166.400 340.825 C 166.400 341.225,166.580 341.664,166.800 341.800 C 167.020 341.936,167.200 342.467,167.200 342.981 C 167.200 343.494,167.470 344.018,167.800 344.145 C 168.208 344.301,168.400 344.940,168.400 346.142 C 168.400 347.113,168.669 348.424,168.998 349.054 C 170.317 351.585,169.786 352.003,165.267 351.993 C 161.945 351.986,160.400 351.120,160.400 349.267 C 160.400 348.816,160.220 348.336,160.000 348.200 C 159.780 348.064,159.600 347.535,159.600 347.025 C 159.600 346.515,159.330 345.874,159.000 345.600 C 158.670 345.326,158.400 344.764,158.400 344.351 C 158.400 343.643,157.972 343.600,151.000 343.600 L 143.600 343.600 143.600 344.576 C 143.600 345.113,143.420 345.664,143.200 345.800 C 142.980 345.936,142.800 346.474,142.800 346.995 C 142.800 347.516,142.530 348.213,142.200 348.543 C 141.870 348.873,141.600 349.512,141.600 349.962 C 141.600 351.526,140.056 352.041,135.747 351.915 L 131.800 351.800 131.673 350.698 C 131.591 349.979,131.764 349.512,132.173 349.355 C 132.518 349.223,132.800 348.694,132.800 348.181 C 132.800 347.667,132.980 347.136,133.200 347.000 C 133.420 346.864,133.600 346.425,133.600 346.025 C 133.600 345.625,133.870 345.074,134.200 344.800 C 134.530 344.526,134.800 343.784,134.800 343.151 C 134.800 342.518,134.980 342.000,135.200 342.000 C 135.420 342.000,135.600 341.676,135.600 341.280 C 135.600 340.884,135.810 340.350,136.067 340.093 C 136.545 339.615,137.497 337.309,137.879 335.700 C 137.997 335.205,138.252 334.800,138.447 334.800 C 138.641 334.800,138.800 334.543,138.800 334.229 C 138.800 333.914,139.025 333.419,139.300 333.129 C 139.883 332.512,140.643 330.982,141.002 329.700 C 141.140 329.205,141.422 328.800,141.627 328.800 C 141.832 328.800,142.000 328.361,142.000 327.824 C 142.000 327.287,142.180 326.736,142.400 326.600 C 142.620 326.464,142.800 325.998,142.800 325.564 C 142.800 325.130,143.070 324.671,143.400 324.545 C 143.730 324.418,144.006 323.929,144.013 323.457 C 144.020 322.986,144.290 322.251,144.613 321.824 C 144.936 321.396,145.200 320.631,145.200 320.124 C 145.200 319.616,145.380 319.200,145.600 319.200 C 145.820 319.200,146.000 318.989,146.000 318.731 C 146.000 318.473,146.315 317.578,146.700 316.741 L 147.400 315.221 151.000 315.213 L 154.600 315.205 155.300 316.435 M194.600 315.600 C 194.736 315.820,195.194 316.000,195.618 316.000 C 196.546 316.000,201.200 320.405,201.200 321.283 C 201.200 321.623,201.470 322.126,201.800 322.400 C 202.529 323.005,202.685 331.377,201.975 331.815 C 201.742 331.960,201.384 332.515,201.181 333.049 C 200.978 333.583,200.494 334.137,200.106 334.280 C 199.718 334.423,199.004 334.959,198.519 335.470 C 198.035 335.982,197.437 336.400,197.191 336.400 C 196.944 336.400,196.473 336.670,196.143 337.000 C 195.813 337.330,195.116 337.600,194.595 337.600 C 193.175 337.600,193.001 338.324,194.164 339.401 C 194.734 339.930,195.200 340.535,195.200 340.748 C 195.200 340.960,195.335 341.193,195.500 341.267 C 195.665 341.340,196.880 342.652,198.200 344.183 C 199.520 345.714,201.470 347.841,202.532 348.910 C 205.342 351.737,205.051 352.000,199.113 352.000 L 194.200 352.000 191.300 348.906 C 189.705 347.205,188.400 345.475,188.400 345.063 C 188.400 344.303,188.101 343.924,184.702 340.379 C 183.050 338.656,182.598 338.400,181.212 338.400 L 179.619 338.400 179.510 345.100 L 179.400 351.800 176.000 351.918 C 174.130 351.983,172.195 351.935,171.700 351.810 L 170.800 351.585 170.800 333.659 C 170.800 323.800,170.920 315.613,171.067 315.467 C 171.511 315.022,194.323 315.152,194.600 315.600 M233.114 319.100 L 233.000 323.000 223.300 323.107 L 213.600 323.214 213.600 326.407 L 213.600 329.600 222.792 329.600 L 231.985 329.600 232.215 330.517 C 232.341 331.021,232.390 332.506,232.322 333.817 L 232.200 336.200 222.900 336.307 L 213.600 336.415 213.600 340.207 L 213.600 344.000 223.586 344.000 C 235.150 344.000,234.400 343.700,234.400 348.325 C 234.400 352.262,235.362 352.027,219.753 351.905 L 206.200 351.800 206.096 333.500 L 205.992 315.200 219.610 315.200 L 233.229 315.200 233.114 319.100 M266.317 318.966 C 266.464 323.492,267.203 323.187,256.100 323.194 L 246.800 323.200 246.800 326.392 L 246.800 329.585 255.900 329.692 L 265.000 329.800 265.116 333.100 L 265.232 336.400 256.016 336.400 L 246.800 336.400 246.800 340.200 L 246.800 344.000 256.500 344.006 C 268.050 344.013,267.265 343.701,267.117 348.234 L 267.000 351.800 252.600 351.800 L 238.200 351.800 238.096 333.495 L 237.992 315.190 252.096 315.295 L 266.200 315.400 266.317 318.966 M293.400 315.600 C 293.536 315.820,293.962 316.000,294.346 316.000 C 295.673 316.000,300.400 320.438,300.400 321.683 C 300.400 322.078,300.580 322.400,300.800 322.400 C 301.459 322.400,301.304 330.869,300.620 332.239 C 299.951 333.577,296.727 336.400,295.867 336.400 C 295.547 336.400,295.182 336.670,295.055 337.000 C 294.929 337.330,294.405 337.600,293.893 337.600 C 292.261 337.600,291.977 338.348,293.151 339.550 C 293.733 340.145,294.927 341.517,295.804 342.598 C 296.682 343.680,298.781 346.011,300.468 347.779 C 304.370 351.867,304.288 352.000,297.868 352.000 L 293.035 352.000 291.725 350.500 C 291.005 349.675,290.412 348.762,290.408 348.472 C 290.382 346.692,282.020 338.400,280.252 338.400 L 278.800 338.400 278.800 344.957 C 278.800 352.517,279.112 352.000,274.541 352.000 C 269.533 352.000,270.000 353.884,270.000 333.666 C 270.000 320.584,270.121 316.039,270.480 315.680 C 271.096 315.064,293.021 314.987,293.400 315.600 M179.600 327.400 L 179.600 331.600 184.389 331.600 C 188.725 331.600,189.387 331.501,191.389 330.553 L 193.600 329.506 193.600 327.531 C 193.600 325.815,193.430 325.400,192.311 324.377 L 191.022 323.200 185.311 323.200 L 179.600 323.200 179.600 327.400 M278.800 327.400 L 278.800 331.600 284.026 331.600 C 290.922 331.600,292.400 330.848,292.400 327.339 C 292.400 325.827,292.182 325.217,291.325 324.322 L 290.250 323.200 284.525 323.200 L 278.800 323.200 278.800 327.400 M150.532 327.114 C 150.274 327.276,149.939 327.903,149.787 328.508 C 149.636 329.113,149.351 329.706,149.156 329.827 C 148.960 329.948,148.800 330.467,148.800 330.981 C 148.800 331.494,148.530 332.018,148.200 332.145 C 147.804 332.297,147.600 332.923,147.600 333.987 L 147.600 335.600 151.226 335.600 L 154.851 335.600 153.975 333.900 C 153.494 332.965,152.942 331.887,152.750 331.505 C 152.557 331.123,152.400 330.468,152.400 330.048 C 152.400 329.629,152.143 329.187,151.829 329.066 C 151.515 328.946,151.200 328.391,151.129 327.834 C 151.045 327.178,150.835 326.924,150.532 327.114 " stroke="none" fill="#dcf39b" fill-rule="evenodd"></path><path id="path2" d="M96.667 67.067 C 96.140 67.594,96.361 91.396,96.900 92.107 C 97.356 92.709,98.710 92.742,112.200 92.484 L 127.000 92.200 112.000 92.000 L 97.000 91.800 97.000 79.300 C 97.000 72.425,96.985 66.800,96.967 66.800 C 96.948 66.800,96.813 66.920,96.667 67.067 M192.800 106.720 L 193.000 146.600 193.102 107.022 C 193.158 85.254,193.068 67.308,192.902 67.142 C 192.736 66.976,192.690 84.786,192.800 106.720 M204.414 67.574 C 203.863 68.604,203.847 163.144,204.398 164.000 C 204.648 164.388,204.822 147.298,204.892 115.700 C 204.951 88.805,204.961 66.800,204.914 66.800 C 204.867 66.800,204.642 67.148,204.414 67.574 M230.197 104.100 L 230.200 139.800 265.662 140.000 C 285.166 140.110,301.040 140.065,300.938 139.900 C 300.836 139.735,284.924 139.600,265.579 139.600 L 230.404 139.600 230.299 104.000 L 230.194 68.400 230.197 104.100 M167.688 97.700 L 167.600 103.600 132.480 103.600 C 105.698 103.600,97.246 103.714,96.880 104.080 C 96.335 104.625,96.158 164.603,96.700 164.938 C 96.865 165.040,97.000 151.416,97.000 134.662 L 97.000 104.200 132.313 104.098 C 160.744 104.016,167.665 103.895,167.825 103.479 C 167.934 103.194,167.968 100.450,167.900 97.381 L 167.775 91.800 167.688 97.700 M167.688 133.697 L 167.600 139.593 144.700 139.700 L 121.800 139.807 144.713 139.903 C 163.196 139.981,167.664 139.900,167.824 139.481 C 167.934 139.195,167.968 136.450,167.900 133.381 L 167.775 127.800 167.688 133.697 M121.757 133.600 C 121.757 136.570,121.820 137.785,121.897 136.300 C 121.974 134.815,121.974 132.385,121.897 130.900 C 121.820 129.415,121.757 130.630,121.757 133.600 M96.880 175.280 C 96.335 175.825,96.156 271.802,96.700 272.138 C 96.865 272.240,97.000 250.516,97.000 223.862 L 97.000 175.400 145.062 175.400 C 171.496 175.400,193.040 175.265,192.938 175.100 C 192.602 174.556,97.425 174.735,96.880 175.280 M204.623 175.689 C 203.075 177.899,203.906 201.827,205.476 200.257 C 205.618 200.116,205.521 200.000,205.261 200.000 C 204.906 200.000,204.815 196.950,204.894 187.700 L 205.000 175.400 253.062 175.400 C 279.496 175.400,301.040 175.265,300.938 175.100 C 300.836 174.935,279.264 174.800,252.999 174.800 L 205.245 174.800 204.623 175.689 M121.792 200.488 C 121.470 201.348,121.379 272.400,121.700 272.400 C 121.865 272.400,122.000 256.200,122.000 236.400 L 122.000 200.400 126.798 200.400 L 131.596 200.400 131.698 236.267 C 131.788 267.751,131.873 272.153,132.400 272.297 C 132.842 272.418,132.869 272.368,132.502 272.108 C 132.113 271.832,131.982 263.967,131.902 235.978 L 131.800 200.200 126.892 200.088 C 123.186 200.003,121.937 200.101,121.792 200.488 M162.799 200.293 L 167.600 200.425 167.600 236.189 C 167.600 255.859,167.735 272.036,167.900 272.138 C 168.065 272.240,168.110 256.096,168.000 236.262 L 167.800 200.200 162.899 200.181 L 157.999 200.161 162.799 200.293 M230.300 200.300 C 238.715 200.360,252.485 200.360,260.900 200.300 C 269.315 200.240,262.430 200.190,245.600 200.190 C 228.770 200.190,221.885 200.240,230.300 200.300 M223.100 211.100 C 232.835 211.160,248.765 211.160,258.500 211.100 C 268.235 211.040,260.270 210.991,240.800 210.991 C 221.330 210.991,213.365 211.040,223.100 211.100 M204.966 218.400 C 204.966 222.470,205.025 224.135,205.098 222.100 C 205.171 220.065,205.171 216.735,205.098 214.700 C 205.025 212.665,204.966 214.330,204.966 218.400 M192.800 242.080 C 192.690 258.734,192.736 272.224,192.903 272.058 C 193.069 271.891,193.159 258.265,193.102 241.777 L 193.000 211.800 192.800 242.080 M204.261 248.854 C 203.918 270.962,203.983 272.411,205.314 272.394 C 205.687 272.389,205.684 272.314,205.303 272.072 C 204.920 271.829,204.783 266.671,204.703 249.378 L 204.600 227.000 204.261 248.854 M230.182 242.000 L 230.200 247.800 253.100 247.903 C 265.695 247.960,276.000 247.870,276.000 247.703 C 276.000 247.536,265.745 247.448,253.211 247.506 L 230.422 247.613 230.293 241.906 L 230.165 236.200 230.182 242.000 M109.168 314.700 C 108.718 315.296,108.722 315.325,109.199 314.900 C 109.896 314.279,120.622 314.188,121.000 314.800 C 121.136 315.020,121.462 315.194,121.724 315.187 C 121.986 315.180,121.851 314.910,121.424 314.587 C 120.182 313.648,109.892 313.743,109.168 314.700 M171.067 315.467 C 170.416 316.117,170.773 351.504,171.433 351.757 C 172.342 352.106,179.117 352.057,179.339 351.700 C 179.441 351.535,177.697 351.400,175.463 351.400 L 171.400 351.400 171.296 333.530 C 171.198 316.758,171.235 315.649,171.896 315.477 C 172.456 315.330,172.470 315.283,171.967 315.246 C 171.618 315.221,171.213 315.320,171.067 315.467 M194.176 315.813 C 194.604 316.136,195.243 316.400,195.596 316.400 C 195.950 316.400,196.456 316.616,196.720 316.880 C 197.093 317.253,197.200 317.251,197.200 316.870 C 197.200 316.601,196.656 316.271,195.992 316.138 C 195.327 316.005,194.686 315.740,194.568 315.548 C 194.450 315.357,194.138 315.206,193.876 315.213 C 193.614 315.220,193.749 315.490,194.176 315.813 M206.096 333.500 L 206.200 351.800 219.753 351.905 C 235.362 352.027,234.400 352.262,234.400 348.325 C 234.400 343.692,235.143 343.985,223.686 344.092 L 213.800 344.185 223.368 344.300 C 234.622 344.435,234.073 344.224,233.916 348.362 L 233.800 351.400 220.100 351.505 L 206.400 351.611 206.400 333.639 C 206.400 319.635,206.510 315.622,206.900 315.465 C 207.197 315.345,207.114 315.250,206.696 315.232 C 206.032 315.202,205.998 316.249,206.096 333.500 M265.997 319.118 L 266.194 323.000 266.314 319.436 C 266.379 317.477,266.291 315.730,266.116 315.555 C 265.942 315.380,265.889 316.983,265.997 319.118 M270.480 315.680 C 270.121 316.039,270.000 320.584,270.000 333.666 C 270.000 353.969,269.487 352.047,274.874 351.924 L 278.200 351.849 274.600 351.624 L 271.000 351.400 270.896 333.626 C 270.814 319.673,270.900 315.784,271.296 315.532 C 271.573 315.356,271.611 315.209,271.380 315.206 C 271.149 315.203,270.744 315.416,270.480 315.680 M293.118 315.828 C 293.611 316.173,294.327 316.374,294.707 316.274 C 295.233 316.137,295.189 316.082,294.524 316.046 C 294.042 316.021,293.536 315.820,293.400 315.600 C 293.264 315.380,292.943 315.200,292.687 315.200 C 292.431 315.200,292.625 315.483,293.118 315.828 M146.485 317.213 C 146.218 317.640,146.000 318.262,146.000 318.595 C 146.000 318.928,145.820 319.200,145.600 319.200 C 145.380 319.200,145.200 319.402,145.200 319.649 C 145.200 319.959,145.385 319.944,145.800 319.600 C 146.130 319.326,146.400 318.800,146.400 318.431 C 146.400 318.062,146.613 317.547,146.873 317.287 C 147.134 317.026,147.262 316.729,147.158 316.625 C 147.055 316.521,146.752 316.786,146.485 317.213 M298.064 319.012 C 299.088 320.106,300.013 321.360,300.117 321.800 L 300.307 322.600 300.347 321.800 C 300.388 320.991,299.016 319.257,297.194 317.812 C 296.647 317.379,297.039 317.919,298.064 319.012 M102.300 319.185 C 101.282 320.177,101.440 320.580,102.471 319.620 C 102.950 319.174,103.265 318.740,103.171 318.656 C 103.077 318.572,102.685 318.810,102.300 319.185 M129.225 320.600 C 129.225 320.820,129.490 321.349,129.813 321.776 C 130.136 322.204,130.400 322.373,130.400 322.153 C 130.400 321.933,130.136 321.404,129.813 320.976 C 129.490 320.549,129.225 320.380,129.225 320.600 M100.080 321.680 C 99.816 321.944,99.600 322.394,99.600 322.680 C 99.600 322.966,99.420 323.200,99.200 323.200 C 98.980 323.200,98.800 323.391,98.800 323.624 C 98.800 324.317,99.507 323.669,100.144 322.392 C 100.800 321.077,100.790 320.970,100.080 321.680 M115.395 321.897 C 116.272 321.986,117.262 322.271,117.595 322.530 C 118.123 322.940,118.130 322.911,117.651 322.300 C 117.267 321.810,116.607 321.620,115.451 321.667 L 113.800 321.734 115.395 321.897 M201.500 322.399 C 202.151 323.129,202.178 330.518,201.535 331.726 C 201.114 332.516,201.133 332.547,201.735 332.051 C 202.742 331.220,202.713 323.135,201.700 322.368 C 201.104 321.918,201.075 321.922,201.500 322.399 M223.200 322.800 L 213.400 323.021 223.076 323.111 C 229.194 323.167,232.844 323.053,233.000 322.800 C 233.136 322.580,233.192 322.440,233.124 322.489 C 233.056 322.538,228.590 322.678,223.200 322.800 M109.824 323.413 C 109.146 323.925,109.134 324.000,109.724 324.000 C 110.096 324.000,110.400 323.833,110.400 323.628 C 110.400 323.423,110.805 323.178,111.300 323.082 C 112.071 322.934,112.085 322.903,111.400 322.867 C 110.960 322.844,110.251 323.090,109.824 323.413 M119.300 323.087 C 119.905 323.178,120.400 323.421,120.400 323.627 C 120.400 323.832,120.602 324.000,120.849 324.000 C 121.159 324.000,121.144 323.815,120.800 323.400 C 120.526 323.070,119.829 322.827,119.251 322.860 L 118.200 322.920 119.300 323.087 M185.173 323.100 C 188.935 323.180,191.164 323.393,191.573 323.711 C 192.125 324.142,192.135 324.117,191.651 323.500 C 191.167 322.883,190.412 322.810,185.251 322.888 L 179.400 322.976 185.173 323.100 M246.569 323.337 C 246.455 323.633,246.425 325.208,246.502 326.837 L 246.641 329.800 246.721 326.507 L 246.800 323.214 256.300 323.100 L 265.800 322.985 256.287 322.892 C 248.628 322.818,246.735 322.905,246.569 323.337 M278.572 323.328 C 278.461 323.619,278.421 325.644,278.485 327.828 L 278.600 331.800 283.901 331.818 L 289.201 331.836 284.001 331.707 L 278.800 331.577 278.800 327.388 L 278.800 323.200 284.525 323.200 L 290.250 323.200 291.325 324.322 C 292.454 325.500,292.917 329.277,291.990 329.737 C 291.764 329.849,291.810 329.894,292.090 329.839 C 293.326 329.593,292.942 325.584,291.544 324.143 L 290.243 322.800 284.509 322.800 C 280.126 322.800,278.727 322.925,278.572 323.328 M158.300 323.599 C 158.575 323.908,158.800 324.552,158.800 325.031 C 158.800 325.510,159.115 326.140,159.500 326.432 C 160.096 326.882,160.125 326.878,159.700 326.401 C 159.425 326.092,159.200 325.448,159.200 324.969 C 159.200 324.490,158.885 323.860,158.500 323.568 C 157.904 323.118,157.875 323.122,158.300 323.599 M131.213 323.705 C 131.206 323.873,131.359 324.323,131.553 324.705 C 131.748 325.087,132.138 325.895,132.421 326.499 C 132.703 327.104,133.027 327.506,133.141 327.393 C 133.254 327.279,133.134 326.974,132.873 326.713 C 132.613 326.453,132.400 325.950,132.400 325.596 C 132.400 324.963,131.237 323.111,131.213 323.705 M107.375 325.300 L 106.200 326.600 107.500 325.425 C 108.712 324.330,108.984 324.000,108.675 324.000 C 108.606 324.000,108.021 324.585,107.375 325.300 M122.408 324.948 C 122.954 325.469,123.477 325.827,123.571 325.744 C 123.786 325.552,122.142 324.000,121.725 324.000 C 121.556 324.000,121.863 324.427,122.408 324.948 M98.041 325.323 C 97.747 325.872,97.604 326.564,97.722 326.861 C 97.847 327.174,97.950 327.037,97.968 326.533 C 97.986 326.057,98.207 325.598,98.460 325.513 C 98.713 325.429,98.842 325.127,98.748 324.843 C 98.639 324.518,98.376 324.697,98.041 325.323 M142.958 325.100 C 142.839 325.485,142.546 326.160,142.307 326.600 C 141.927 327.297,141.951 327.334,142.491 326.888 C 142.832 326.606,143.196 325.931,143.300 325.388 C 143.517 324.255,143.281 324.056,142.958 325.100 M150.258 326.825 C 149.850 327.222,149.610 327.784,149.726 328.074 C 149.893 328.490,149.943 328.484,149.968 328.044 C 149.986 327.738,150.315 327.258,150.699 326.977 C 151.084 326.696,151.309 326.384,151.199 326.284 C 151.090 326.185,150.666 326.428,150.258 326.825 M123.907 327.000 C 124.146 327.440,124.439 328.115,124.558 328.500 C 124.677 328.885,125.006 329.186,125.287 329.168 C 125.689 329.144,125.692 329.093,125.300 328.935 C 125.025 328.824,124.800 328.410,124.800 328.016 C 124.800 327.621,124.501 327.051,124.136 326.749 C 123.541 326.257,123.517 326.283,123.907 327.000 M105.685 328.813 C 104.959 329.975,105.059 337.580,105.813 338.576 C 106.136 339.004,106.400 339.149,106.400 338.900 C 106.400 338.651,106.220 338.336,106.000 338.200 C 105.417 337.840,105.483 329.477,106.073 328.887 C 106.334 328.626,106.462 328.329,106.358 328.225 C 106.255 328.121,105.952 328.386,105.685 328.813 M160.254 328.670 C 160.503 328.851,160.807 329.360,160.928 329.800 C 161.101 330.431,161.132 330.395,161.074 329.631 C 161.033 329.099,160.730 328.590,160.400 328.501 C 160.004 328.394,159.954 328.451,160.254 328.670 M140.990 329.630 C 140.612 330.822,140.927 330.915,141.467 329.771 C 141.719 329.237,141.774 328.800,141.589 328.800 C 141.405 328.800,141.135 329.174,140.990 329.630 M96.551 333.600 C 96.551 336.130,96.616 337.165,96.696 335.900 C 96.775 334.635,96.775 332.565,96.696 331.300 C 96.616 330.035,96.551 331.070,96.551 333.600 M231.359 330.121 C 231.952 330.554,232.049 331.119,231.936 333.484 C 231.861 335.047,231.935 336.242,232.100 336.140 C 233.049 335.549,232.303 329.600,231.281 329.600 C 230.743 329.600,230.755 329.679,231.359 330.121 M128.224 330.613 C 127.796 330.936,127.625 331.200,127.844 331.200 C 128.062 331.200,128.411 331.033,128.620 330.829 C 128.829 330.624,129.630 330.383,130.400 330.293 L 131.800 330.128 130.400 330.077 C 129.630 330.049,128.651 330.290,128.224 330.613 M148.153 331.370 C 147.792 332.149,147.812 332.294,148.253 332.124 C 148.554 332.009,148.800 331.574,148.800 331.157 C 148.800 330.170,148.693 330.205,148.153 331.370 M152.689 331.400 C 152.919 331.840,153.338 332.695,153.621 333.299 C 153.903 333.904,154.227 334.306,154.341 334.193 C 154.454 334.079,154.334 333.774,154.073 333.513 C 153.813 333.253,153.600 332.738,153.600 332.369 C 153.600 332.000,153.301 331.451,152.936 331.149 C 152.342 330.658,152.316 330.685,152.689 331.400 M182.316 331.897 C 183.699 331.975,185.859 331.974,187.116 331.895 C 188.372 331.816,187.240 331.752,184.600 331.753 C 181.960 331.753,180.932 331.818,182.316 331.897 M300.000 332.663 C 300.000 332.880,299.076 333.810,297.946 334.729 C 296.817 335.648,296.052 336.393,296.246 336.385 C 296.892 336.357,300.594 332.860,300.294 332.561 C 300.132 332.399,300.000 332.445,300.000 332.663 M138.964 333.800 C 138.826 334.350,138.553 334.800,138.357 334.800 C 138.160 334.800,138.000 334.991,138.000 335.224 C 138.000 335.917,138.707 335.269,139.344 333.992 C 139.671 333.336,139.776 332.800,139.577 332.800 C 139.378 332.800,139.102 333.250,138.964 333.800 M200.056 333.634 C 199.412 334.156,199.301 334.400,199.707 334.400 C 200.306 334.400,201.450 333.315,201.157 333.025 C 201.071 332.939,200.575 333.213,200.056 333.634 M163.500 334.799 C 163.775 335.108,164.000 335.662,164.000 336.031 C 164.000 336.400,164.270 336.926,164.600 337.200 C 165.015 337.544,165.200 337.559,165.200 337.249 C 165.200 337.002,165.020 336.800,164.800 336.800 C 164.580 336.800,164.400 336.462,164.400 336.049 C 164.400 335.636,164.085 335.060,163.700 334.768 C 163.104 334.318,163.075 334.322,163.500 334.799 M147.103 335.031 C 146.401 335.732,147.539 336.000,151.224 336.000 C 154.896 336.000,155.926 335.696,154.738 334.962 C 154.452 334.785,154.385 334.852,154.562 335.138 C 154.769 335.474,153.869 335.600,151.257 335.600 C 149.078 335.600,147.611 335.433,147.525 335.175 C 147.447 334.941,147.257 334.876,147.103 335.031 M125.857 335.907 C 125.753 336.076,126.351 336.150,127.187 336.070 C 128.023 335.990,128.828 336.122,128.977 336.362 C 129.126 336.603,129.462 336.794,129.724 336.787 C 129.986 336.780,129.851 336.510,129.424 336.187 C 128.609 335.571,126.183 335.380,125.857 335.907 M137.285 337.373 C 136.615 338.844,136.678 339.152,137.430 338.079 C 137.776 337.584,137.995 336.984,137.915 336.744 C 137.835 336.505,137.552 336.788,137.285 337.373 M246.577 340.299 L 246.600 344.200 256.600 344.400 L 266.600 344.600 266.716 348.110 L 266.831 351.620 252.435 351.510 C 244.518 351.449,238.177 351.537,238.345 351.705 C 238.513 351.873,245.029 351.963,252.825 351.905 L 267.000 351.800 267.117 348.234 C 267.265 343.701,268.048 344.013,256.514 344.006 L 246.829 344.000 246.692 340.199 L 246.554 336.398 246.577 340.299 M293.632 337.153 C 292.879 337.289,292.182 337.670,292.082 338.000 C 291.935 338.484,292.002 338.504,292.430 338.100 C 292.722 337.825,293.363 337.600,293.856 337.600 C 294.349 337.600,294.864 337.420,295.000 337.200 C 295.136 336.980,295.192 336.824,295.124 336.853 C 295.056 336.882,294.384 337.017,293.632 337.153 M193.188 337.814 C 192.701 338.401,194.588 341.145,195.115 340.618 C 195.211 340.522,194.788 339.980,194.175 339.412 C 192.976 338.300,193.143 337.786,194.800 337.488 L 195.800 337.309 194.749 337.254 C 194.171 337.225,193.468 337.477,193.188 337.814 M124.832 338.339 C 124.179 339.560,124.314 339.900,125.041 338.863 C 125.393 338.360,125.588 337.854,125.473 337.740 C 125.359 337.625,125.070 337.895,124.832 338.339 M278.564 345.000 C 278.563 348.740,278.623 350.324,278.697 348.520 C 278.771 346.715,278.772 343.655,278.698 341.720 C 278.625 339.784,278.564 341.260,278.564 345.000 M132.432 339.939 C 132.195 340.384,132.000 341.119,132.000 341.574 C 132.000 342.028,131.820 342.400,131.600 342.400 C 131.380 342.400,131.200 342.602,131.200 342.849 C 131.200 343.159,131.385 343.144,131.800 342.800 C 132.130 342.526,132.400 341.910,132.400 341.431 C 132.400 340.952,132.613 340.347,132.873 340.087 C 133.134 339.826,133.238 339.505,133.106 339.372 C 132.973 339.240,132.670 339.495,132.432 339.939 M165.500 339.599 C 165.775 339.908,166.000 340.462,166.000 340.831 C 166.000 341.200,166.315 341.740,166.700 342.032 C 167.296 342.482,167.325 342.478,166.900 342.001 C 166.625 341.692,166.400 341.138,166.400 340.769 C 166.400 340.400,166.085 339.860,165.700 339.568 C 165.104 339.118,165.075 339.122,165.500 339.599 M97.673 340.400 C 97.647 340.950,97.890 341.749,98.213 342.176 C 98.725 342.854,98.800 342.866,98.800 342.276 C 98.800 341.904,98.632 341.600,98.427 341.600 C 98.221 341.600,97.978 341.105,97.887 340.500 C 97.728 339.455,97.718 339.450,97.673 340.400 M136.080 340.080 C 135.816 340.344,135.600 340.884,135.600 341.280 C 135.600 341.676,135.420 342.000,135.200 342.000 C 134.980 342.000,134.800 342.202,134.800 342.449 C 134.800 342.759,134.985 342.744,135.400 342.400 C 135.730 342.126,136.000 341.600,136.000 341.231 C 136.000 340.862,136.216 340.344,136.480 340.080 C 136.744 339.816,136.870 339.600,136.760 339.600 C 136.650 339.600,136.344 339.816,136.080 340.080 M123.133 341.177 C 122.741 341.867,122.658 342.275,122.933 342.168 C 123.452 341.966,124.478 339.999,124.062 340.003 C 123.918 340.004,123.500 340.533,123.133 341.177 M294.000 341.095 C 294.000 341.284,294.752 342.149,295.671 343.019 L 297.343 344.600 296.042 342.906 C 294.673 341.122,294.000 340.525,294.000 341.095 M196.042 342.300 C 196.587 342.905,197.791 344.251,198.717 345.291 C 199.643 346.331,200.400 347.078,200.400 346.952 C 200.400 346.537,195.810 341.254,195.425 341.227 C 195.219 341.212,195.497 341.695,196.042 342.300 M285.463 342.400 C 286.051 343.060,286.598 343.600,286.678 343.600 C 286.758 343.600,286.425 343.060,285.937 342.400 C 285.449 341.740,284.902 341.200,284.722 341.200 C 284.541 341.200,284.875 341.740,285.463 342.400 M186.888 342.792 C 187.160 343.228,187.652 343.688,187.982 343.814 C 188.312 343.941,188.149 343.584,187.621 343.022 C 186.469 341.797,186.217 341.717,186.888 342.792 M109.024 343.387 C 109.451 343.710,109.980 343.975,110.200 343.975 C 110.420 343.975,110.251 343.710,109.824 343.387 C 109.396 343.064,108.867 342.800,108.647 342.800 C 108.427 342.800,108.596 343.064,109.024 343.387 M120.812 343.184 C 119.859 343.787,120.509 343.914,121.600 343.339 C 122.151 343.048,122.331 342.812,122.000 342.812 C 121.670 342.812,121.135 342.980,120.812 343.184 M158.446 344.251 C 158.421 344.719,158.715 345.349,159.100 345.651 C 159.709 346.128,159.740 346.122,159.343 345.600 C 159.092 345.270,158.798 344.640,158.689 344.200 C 158.503 343.440,158.490 343.443,158.446 344.251 M111.400 344.272 C 111.840 344.393,112.349 344.697,112.530 344.946 C 112.749 345.246,112.806 345.196,112.699 344.800 C 112.610 344.470,112.101 344.167,111.569 344.126 C 110.805 344.068,110.769 344.099,111.400 344.272 M117.776 344.587 C 117.349 344.910,117.189 345.180,117.420 345.187 C 117.651 345.194,118.011 345.037,118.220 344.839 C 118.429 344.640,118.960 344.391,119.400 344.285 C 120.180 344.097,120.180 344.092,119.376 344.046 C 118.924 344.021,118.204 344.264,117.776 344.587 M167.993 346.119 L 168.185 348.200 168.318 346.446 C 168.391 345.481,168.305 344.544,168.126 344.365 C 167.947 344.185,167.887 344.975,167.993 346.119 M288.396 345.594 C 289.090 346.471,289.867 347.318,290.123 347.476 C 290.378 347.634,289.893 346.916,289.045 345.881 C 288.197 344.847,287.420 344.000,287.318 344.000 C 287.216 344.000,287.701 344.718,288.396 345.594 M134.080 344.880 C 133.816 345.144,133.600 345.648,133.600 346.000 C 133.600 346.352,133.375 346.892,133.100 347.201 C 132.675 347.678,132.704 347.682,133.300 347.232 C 133.685 346.940,134.000 346.400,134.000 346.031 C 134.000 345.662,134.216 345.144,134.480 344.880 C 134.744 344.616,134.870 344.400,134.760 344.400 C 134.650 344.400,134.344 344.616,134.080 344.880 M142.828 345.748 C 142.549 346.269,142.408 347.034,142.514 347.447 C 142.659 348.012,142.719 347.945,142.754 347.180 C 142.779 346.619,143.013 345.947,143.273 345.687 C 143.534 345.426,143.654 345.121,143.541 345.007 C 143.427 344.894,143.107 345.227,142.828 345.748 M300.117 347.885 C 301.781 349.581,303.055 351.111,302.948 351.285 C 302.652 351.763,292.903 351.673,292.663 351.190 C 292.551 350.965,292.506 351.010,292.563 351.290 C 292.711 352.028,302.510 352.234,303.104 351.512 C 303.498 351.032,298.173 344.800,297.370 344.800 C 297.217 344.800,298.453 346.188,300.117 347.885 M188.400 345.464 C 188.400 345.682,188.895 346.297,189.500 346.830 L 190.600 347.800 189.600 346.600 C 189.050 345.940,188.555 345.325,188.500 345.233 C 188.445 345.142,188.400 345.245,188.400 345.464 M128.394 347.006 C 127.651 347.773,127.174 348.400,127.335 348.400 C 127.723 348.400,130.095 345.962,129.899 345.765 C 129.814 345.681,129.137 346.239,128.394 347.006 M159.600 347.496 C 159.600 347.747,159.780 348.064,160.000 348.200 C 160.220 348.336,160.400 348.876,160.400 349.400 C 160.400 349.924,160.561 350.452,160.757 350.574 C 161.246 350.876,160.577 348.017,160.031 347.471 C 159.723 347.163,159.600 347.170,159.600 347.496 M290.400 348.484 C 290.400 348.824,290.699 349.349,291.065 349.651 C 291.674 350.153,291.687 350.115,291.211 349.200 C 290.514 347.859,290.400 347.758,290.400 348.484 M141.467 348.667 C 141.320 348.813,141.200 349.317,141.200 349.787 C 141.200 350.256,140.975 350.892,140.700 351.201 C 140.275 351.678,140.304 351.682,140.900 351.232 C 141.285 350.940,141.600 350.289,141.600 349.784 C 141.600 349.280,141.825 348.776,142.100 348.665 C 142.379 348.552,142.409 348.449,142.167 348.432 C 141.928 348.414,141.613 348.520,141.467 348.667 M131.754 349.777 C 131.079 351.536,131.613 351.799,135.906 351.822 L 140.002 351.844 135.958 351.708 L 131.913 351.571 132.087 350.386 C 132.273 349.119,132.116 348.832,131.754 349.777 M106.768 351.300 C 107.060 351.685,107.715 352.000,108.225 352.000 C 108.735 352.000,109.264 352.180,109.400 352.400 C 109.536 352.620,109.851 352.800,110.100 352.800 C 110.349 352.800,110.204 352.536,109.776 352.213 C 109.349 351.890,108.631 351.620,108.180 351.613 C 107.729 351.606,107.108 351.375,106.799 351.100 C 106.322 350.675,106.318 350.704,106.768 351.300 M123.800 351.200 C 123.664 351.420,123.148 351.600,122.653 351.600 C 121.739 351.600,119.802 352.764,120.676 352.787 C 120.938 352.794,121.264 352.620,121.400 352.400 C 121.536 352.180,122.065 352.000,122.575 352.000 C 123.085 352.000,123.726 351.730,124.000 351.400 C 124.274 351.070,124.397 350.800,124.273 350.800 C 124.149 350.800,123.936 350.980,123.800 351.200 M161.955 351.717 C 162.131 351.892,163.788 351.980,165.637 351.914 L 169.000 351.794 165.318 351.597 C 163.293 351.489,161.780 351.543,161.955 351.717 M193.862 351.700 C 193.964 351.865,196.276 352.000,199.000 352.000 C 201.724 352.000,204.036 351.865,204.138 351.700 C 204.240 351.535,201.928 351.400,199.000 351.400 C 196.072 351.400,193.760 351.535,193.862 351.700 " stroke="none" fill="#aca44c" fill-rule="evenodd"></path><path id="path3" d="M137.328 91.900 C 143.008 91.962,152.188 91.962,157.728 91.900 C 163.268 91.837,158.620 91.786,147.400 91.786 C 136.180 91.786,131.648 91.837,137.328 91.900 M192.971 155.200 C 192.971 160.150,193.028 162.175,193.099 159.700 C 193.169 157.225,193.169 153.175,193.099 150.700 C 193.028 148.225,192.971 150.250,192.971 155.200 M253.200 164.800 L 205.400 165.005 253.076 165.102 C 284.535 165.167,300.837 165.064,301.000 164.800 C 301.136 164.580,301.192 164.444,301.124 164.498 C 301.056 164.551,279.490 164.687,253.200 164.800 M120.900 165.100 C 134.045 165.158,155.555 165.158,168.700 165.100 C 181.845 165.041,171.090 164.994,144.800 164.994 C 118.510 164.994,107.755 165.041,120.900 165.100 M192.800 193.720 L 193.000 212.200 193.104 194.024 C 193.161 184.027,193.071 175.711,192.904 175.544 C 192.737 175.377,192.690 183.556,192.800 193.720 M131.997 203.518 L 132.193 207.000 132.315 203.838 C 132.381 202.099,132.293 200.532,132.118 200.356 C 131.943 200.180,131.888 201.603,131.997 203.518 M207.900 200.296 C 209.275 200.374,211.525 200.374,212.900 200.296 C 214.275 200.218,213.150 200.154,210.400 200.154 C 207.650 200.154,206.525 200.218,207.900 200.296 M157.792 235.800 C 157.792 255.380,157.840 263.331,157.900 253.470 C 157.960 243.608,157.959 227.588,157.900 217.870 C 157.840 208.151,157.791 216.220,157.792 235.800 M276.157 205.600 C 276.157 208.570,276.220 209.785,276.297 208.300 C 276.374 206.815,276.374 204.385,276.297 202.900 C 276.220 201.415,276.157 202.630,276.157 205.600 M204.978 237.800 C 204.978 244.620,205.032 247.466,205.099 244.125 C 205.166 240.784,205.166 235.204,205.099 231.725 C 205.033 228.246,204.978 230.980,204.978 237.800 M253.189 236.298 L 275.977 236.407 276.106 241.804 L 276.235 247.201 276.218 241.701 L 276.200 236.200 253.300 236.195 L 230.400 236.190 253.189 236.298 M168.346 272.106 C 168.514 272.274,174.040 272.364,180.626 272.306 L 192.600 272.199 180.320 272.000 C 173.565 271.890,168.177 271.938,168.346 272.106 M253.200 272.000 L 205.400 272.205 253.076 272.302 C 284.535 272.367,300.837 272.264,301.000 272.000 C 301.136 271.780,301.192 271.644,301.124 271.698 C 301.056 271.751,279.490 271.887,253.200 272.000 M103.100 272.299 C 106.455 272.366,111.945 272.366,115.300 272.299 C 118.655 272.232,115.910 272.178,109.200 272.178 C 102.490 272.178,99.745 272.232,103.100 272.299 M138.925 272.299 C 142.404 272.366,147.984 272.366,151.325 272.299 C 154.666 272.232,151.820 272.178,145.000 272.178 C 138.180 272.178,135.446 272.233,138.925 272.299 M148.800 315.448 C 151.116 315.745,154.712 315.777,154.539 315.500 C 154.437 315.335,152.878 315.227,151.076 315.260 C 149.274 315.293,148.250 315.378,148.800 315.448 M177.724 315.499 C 180.762 315.567,185.622 315.567,188.524 315.499 C 191.426 315.431,188.940 315.375,183.000 315.375 C 177.060 315.375,174.686 315.431,177.724 315.499 M213.525 315.499 C 217.114 315.566,222.874 315.566,226.325 315.499 C 229.776 315.433,226.840 315.378,219.800 315.378 C 212.760 315.379,209.936 315.433,213.525 315.499 M245.700 315.499 C 249.385 315.565,255.415 315.565,259.100 315.499 C 262.785 315.433,259.770 315.379,252.400 315.379 C 245.030 315.379,242.015 315.433,245.700 315.499 M276.700 315.499 C 279.615 315.567,284.385 315.567,287.300 315.499 C 290.215 315.431,287.830 315.375,282.000 315.375 C 276.170 315.375,273.785 315.431,276.700 315.499 M238.089 333.476 C 238.040 343.198,238.135 351.236,238.300 351.339 C 238.573 351.507,238.567 337.784,238.288 322.000 C 238.228 318.590,238.138 323.754,238.089 333.476 M217.678 329.898 C 220.031 329.969,223.991 329.969,226.478 329.899 C 228.965 329.829,227.040 329.771,222.200 329.770 C 217.360 329.770,215.325 329.828,217.678 329.898 M250.900 329.898 C 253.265 329.969,257.135 329.969,259.500 329.898 C 261.865 329.828,259.930 329.770,255.200 329.770 C 250.470 329.770,248.535 329.828,250.900 329.898 M264.928 333.200 C 264.928 334.630,265.001 335.215,265.089 334.500 C 265.178 333.785,265.178 332.615,265.089 331.900 C 265.001 331.185,264.928 331.770,264.928 333.200 M218.123 336.299 C 220.720 336.369,224.860 336.368,227.323 336.298 C 229.785 336.228,227.660 336.171,222.600 336.172 C 217.540 336.172,215.525 336.229,218.123 336.299 M251.100 336.299 C 253.575 336.369,257.625 336.369,260.100 336.299 C 262.575 336.228,260.550 336.171,255.600 336.171 C 250.650 336.171,248.625 336.228,251.100 336.299 M130.500 337.076 C 130.885 337.176,131.515 337.176,131.900 337.076 C 132.285 336.975,131.970 336.893,131.200 336.893 C 130.430 336.893,130.115 336.975,130.500 337.076 M180.200 338.203 C 181.114 338.521,183.529 338.609,183.348 338.316 C 183.241 338.142,182.398 338.014,181.476 338.032 C 180.554 338.049,179.980 338.126,180.200 338.203 M279.500 338.282 C 279.995 338.378,280.805 338.378,281.300 338.282 C 281.795 338.187,281.390 338.109,280.400 338.109 C 279.410 338.109,279.005 338.187,279.500 338.282 M143.338 343.817 C 143.208 344.157,143.213 344.547,143.351 344.684 C 143.488 344.821,143.600 344.637,143.600 344.275 C 143.600 343.693,144.455 343.604,151.100 343.499 L 158.600 343.381 151.087 343.291 C 144.630 343.213,143.542 343.287,143.338 343.817 " stroke="none" fill="#9c8c34" fill-rule="evenodd"></path><path id="path4" d="M96.982 67.303 C 96.875 67.581,96.836 73.207,96.894 79.804 L 97.000 91.800 112.000 91.807 L 127.000 91.814 112.100 91.702 L 97.200 91.590 97.200 79.395 L 97.200 67.200 144.798 67.200 L 192.397 67.200 192.501 116.100 L 192.605 165.000 192.602 116.000 L 192.600 67.000 144.888 66.898 C 106.712 66.817,97.137 66.898,96.982 67.303 M205.280 67.280 C 204.735 67.825,204.556 164.202,205.100 164.538 C 205.265 164.640,205.400 142.826,205.400 116.062 L 205.400 67.400 217.000 67.191 L 228.600 66.982 217.180 66.891 C 208.727 66.824,205.635 66.925,205.280 67.280 M229.797 104.200 L 229.800 140.200 265.294 140.302 L 300.788 140.404 300.903 152.402 L 301.018 164.400 301.009 152.300 L 301.000 140.200 265.502 140.098 L 230.004 139.996 229.899 104.098 L 229.794 68.200 229.797 104.200 M167.920 97.817 L 168.039 103.996 132.520 104.098 L 97.000 104.200 96.996 134.400 L 96.992 164.600 97.099 134.502 L 97.205 104.404 132.703 104.302 L 168.200 104.200 168.311 98.231 C 168.372 94.948,168.282 92.122,168.111 91.950 C 167.940 91.778,167.854 94.418,167.920 97.817 M144.789 127.898 L 167.979 128.006 168.106 133.804 L 168.233 139.601 168.217 133.700 L 168.200 127.800 144.900 127.795 L 121.600 127.790 144.789 127.898 M121.600 140.100 C 121.600 140.265,132.085 140.359,144.900 140.309 C 157.715 140.258,164.510 140.169,160.000 140.109 C 138.861 139.832,121.600 139.828,121.600 140.100 M96.985 175.698 C 96.880 175.974,96.841 197.800,96.899 224.200 L 97.003 272.200 97.102 223.900 L 97.200 175.600 144.798 175.600 L 192.397 175.600 192.501 223.700 L 192.605 271.800 192.602 223.600 L 192.600 175.400 144.888 175.298 C 106.929 175.218,97.137 175.299,96.985 175.698 M205.068 175.465 C 204.697 175.836,204.728 199.508,205.100 199.738 C 205.265 199.841,205.350 194.451,205.289 187.762 L 205.177 175.600 252.987 175.600 L 300.797 175.600 300.901 223.500 L 301.005 271.400 301.002 223.400 L 301.000 175.400 253.168 175.298 C 226.861 175.243,205.216 175.318,205.068 175.465 M121.860 199.900 C 121.758 200.065,123.232 200.152,125.137 200.093 C 131.246 199.904,131.932 199.742,126.924 199.670 C 124.242 199.631,121.963 199.735,121.860 199.900 M157.861 199.900 C 157.759 200.065,159.953 200.200,162.738 200.200 L 167.800 200.200 167.902 235.782 C 167.958 255.352,168.138 271.498,168.302 271.662 C 168.812 272.172,168.457 200.751,167.947 200.136 C 167.460 199.550,158.212 199.334,157.861 199.900 M225.600 199.893 C 254.263 200.169,276.307 200.172,276.138 199.900 C 276.036 199.735,262.148 199.642,245.276 199.693 C 228.404 199.745,219.550 199.834,225.600 199.893 M132.200 203.763 C 132.200 205.832,132.335 207.441,132.500 207.339 C 132.665 207.236,132.800 205.543,132.800 203.576 C 132.800 201.609,132.665 200.000,132.500 200.001 C 132.335 200.001,132.200 201.694,132.200 203.763 M241.018 211.100 C 221.668 211.157,205.702 211.338,205.538 211.502 C 205.374 211.666,221.109 211.753,240.504 211.696 C 263.080 211.629,275.911 211.449,276.164 211.196 C 276.382 210.978,276.479 210.844,276.380 210.898 C 276.281 210.952,260.368 211.043,241.018 211.100 M229.776 236.519 C 229.666 236.805,229.627 239.550,229.688 242.619 L 229.800 248.200 253.100 248.303 C 275.114 248.401,276.398 248.368,276.368 247.703 C 276.350 247.285,276.255 247.203,276.135 247.500 C 275.977 247.892,270.962 248.000,252.947 248.000 L 229.960 248.000 230.080 241.999 C 230.198 236.074,230.167 235.500,229.776 236.519 M204.884 260.676 C 204.838 266.658,204.935 271.637,205.100 271.739 C 205.265 271.841,205.354 268.657,205.298 264.662 C 205.106 251.104,204.968 249.769,204.884 260.676 M109.424 315.013 C 108.996 315.336,108.851 315.600,109.100 315.600 C 109.349 315.600,109.664 315.420,109.800 315.200 C 109.944 314.967,112.196 314.800,115.200 314.800 C 118.204 314.800,120.456 314.967,120.600 315.200 C 120.736 315.420,121.141 315.600,121.500 315.600 C 122.048 315.600,122.028 315.505,121.376 315.013 C 120.786 314.566,119.353 314.425,115.400 314.425 C 111.447 314.425,110.014 314.566,109.424 315.013 M106.390 316.221 C 105.127 316.892,103.300 318.800,103.921 318.800 C 104.174 318.800,104.676 318.350,105.037 317.800 C 105.397 317.250,105.919 316.800,106.197 316.800 C 106.475 316.800,106.926 316.530,107.200 316.200 C 107.777 315.504,107.738 315.505,106.390 316.221 M123.549 316.100 C 123.851 316.485,124.481 316.779,124.949 316.754 C 125.757 316.710,125.760 316.697,125.000 316.511 C 124.560 316.402,123.930 316.108,123.600 315.857 C 123.078 315.460,123.072 315.491,123.549 316.100 M147.029 316.861 C 146.683 317.555,146.400 318.343,146.400 318.612 C 146.400 318.882,146.130 319.326,145.800 319.600 C 145.470 319.874,145.200 320.580,145.200 321.169 C 145.200 321.758,144.975 322.492,144.700 322.801 C 144.275 323.278,144.304 323.282,144.900 322.832 C 145.285 322.540,145.600 321.806,145.600 321.200 C 145.600 320.594,145.870 319.874,146.200 319.600 C 146.530 319.326,146.800 318.764,146.800 318.351 C 146.800 317.938,146.959 317.600,147.153 317.600 C 147.348 317.600,147.593 317.150,147.698 316.600 C 147.951 315.275,147.789 315.339,147.029 316.861 M171.383 316.100 C 171.278 316.375,171.238 324.430,171.296 334.000 L 171.400 351.400 175.400 351.400 L 179.400 351.400 179.600 344.699 C 179.710 341.014,179.665 337.999,179.500 337.999 C 179.335 338.000,179.200 340.970,179.200 344.600 L 179.200 351.200 175.592 351.200 L 171.984 351.200 172.092 333.400 C 172.188 317.535,172.057 314.342,171.383 316.100 M193.600 315.989 C 193.600 316.207,194.095 316.503,194.700 316.648 C 195.305 316.792,196.029 317.091,196.310 317.312 C 196.590 317.533,196.928 317.605,197.061 317.472 C 197.194 317.339,196.785 317.024,196.152 316.772 C 195.518 316.520,194.685 316.152,194.300 315.954 C 193.862 315.728,193.600 315.741,193.600 315.989 M206.496 333.500 L 206.600 351.400 220.200 351.400 L 233.800 351.400 233.918 348.708 C 234.036 346.014,233.582 344.400,232.706 344.400 C 232.359 344.400,232.363 344.523,232.720 344.880 C 233.006 345.166,233.200 346.542,233.200 348.280 L 233.200 351.200 219.992 351.200 L 206.784 351.200 206.892 333.400 C 206.951 323.610,206.863 315.600,206.696 315.600 C 206.529 315.600,206.439 323.655,206.496 333.500 M232.796 318.918 L 232.993 322.200 233.115 319.239 C 233.182 317.610,233.094 316.133,232.919 315.957 C 232.743 315.780,232.688 317.113,232.796 318.918 M238.496 333.500 L 238.600 351.400 252.600 351.400 L 266.600 351.400 266.716 348.362 C 266.810 345.892,266.704 345.219,266.150 344.762 C 265.529 344.250,265.510 344.277,265.935 345.074 C 266.191 345.554,266.400 347.129,266.400 348.574 L 266.400 351.200 252.592 351.200 L 238.784 351.200 238.892 333.400 C 238.951 323.610,238.863 315.600,238.696 315.600 C 238.529 315.600,238.439 323.655,238.496 333.500 M265.680 318.893 L 265.600 322.386 255.900 322.500 L 246.200 322.615 255.913 322.707 C 267.036 322.813,266.100 323.202,265.898 318.565 L 265.761 315.400 265.680 318.893 M270.983 316.100 C 270.878 316.375,270.838 324.430,270.896 334.000 L 271.000 351.400 274.600 351.400 L 278.200 351.400 278.400 344.737 C 278.510 341.073,278.465 338.158,278.300 338.261 C 278.135 338.363,278.000 341.317,278.000 344.824 L 278.000 351.200 274.592 351.200 L 271.184 351.200 271.292 333.400 C 271.351 323.610,271.349 315.600,271.287 315.600 C 271.226 315.600,271.089 315.825,270.983 316.100 M292.768 316.100 C 293.060 316.485,293.690 316.800,294.169 316.800 C 294.648 316.800,295.292 317.025,295.601 317.300 C 296.078 317.725,296.082 317.696,295.632 317.100 C 295.340 316.715,294.710 316.400,294.231 316.400 C 293.752 316.400,293.108 316.175,292.799 315.900 C 292.322 315.475,292.318 315.504,292.768 316.100 M197.600 317.915 C 197.600 318.084,197.960 318.530,198.400 318.907 C 198.840 319.284,199.200 319.454,199.200 319.285 C 199.200 319.116,198.840 318.670,198.400 318.293 C 197.960 317.916,197.600 317.746,197.600 317.915 M296.400 317.670 C 296.400 317.800,297.120 318.626,298.000 319.506 C 298.880 320.386,299.600 321.386,299.600 321.729 C 299.600 322.072,299.754 322.448,299.942 322.564 C 300.130 322.681,300.203 322.352,300.104 321.834 C 299.949 321.020,296.400 317.031,296.400 317.670 M156.526 320.769 C 156.567 321.301,156.870 321.810,157.200 321.899 C 157.596 322.006,157.646 321.949,157.346 321.730 C 157.097 321.549,156.793 321.040,156.672 320.600 C 156.499 319.969,156.468 320.005,156.526 320.769 M128.800 320.751 C 128.800 321.017,129.275 321.722,129.856 322.317 L 130.912 323.400 129.986 322.000 C 128.767 320.159,128.800 320.193,128.800 320.751 M100.540 321.673 C 99.762 322.879,99.217 323.836,98.986 324.400 C 98.852 324.730,98.546 325.360,98.307 325.800 C 97.917 326.517,97.941 326.543,98.536 326.051 C 98.901 325.749,99.200 325.242,99.200 324.924 C 99.200 324.607,99.675 323.724,100.256 322.962 C 100.836 322.201,101.214 321.481,101.096 321.363 C 100.977 321.244,100.727 321.384,100.540 321.673 M200.832 321.857 C 200.814 322.329,201.095 322.828,201.457 322.966 C 201.948 323.155,202.012 323.090,201.710 322.709 C 201.489 322.429,201.207 321.930,201.085 321.600 C 200.934 321.190,200.853 321.272,200.832 321.857 M117.776 322.213 C 118.204 322.536,118.933 322.800,119.396 322.800 C 119.860 322.800,120.492 323.025,120.801 323.300 C 121.278 323.725,121.282 323.696,120.832 323.100 C 120.540 322.715,119.885 322.400,119.375 322.400 C 118.865 322.400,118.336 322.220,118.200 322.000 C 118.064 321.780,117.738 321.606,117.476 321.613 C 117.214 321.620,117.349 321.890,117.776 322.213 M109.776 322.987 C 109.349 323.310,109.189 323.580,109.420 323.587 C 109.651 323.594,110.011 323.437,110.220 323.239 C 110.429 323.040,110.960 322.791,111.400 322.685 C 112.180 322.497,112.180 322.492,111.376 322.446 C 110.924 322.421,110.204 322.664,109.776 322.987 M179.377 322.915 C 179.264 323.210,179.230 325.420,179.301 327.826 L 179.430 332.200 179.515 327.500 L 179.600 322.800 185.567 322.800 C 189.243 322.800,191.611 322.957,191.737 323.210 C 191.849 323.436,191.894 323.390,191.837 323.110 C 191.683 322.347,179.667 322.159,179.377 322.915 M213.370 322.933 C 213.258 323.227,213.227 324.982,213.301 326.833 L 213.437 330.200 213.519 326.507 L 213.600 322.814 223.300 322.700 L 233.000 322.585 223.287 322.493 C 215.497 322.418,213.534 322.506,213.370 322.933 M278.267 322.667 C 277.898 323.035,277.929 331.509,278.300 331.739 C 278.465 331.842,278.544 329.873,278.476 327.363 L 278.352 322.800 284.423 322.800 L 290.495 322.800 291.660 324.100 C 292.701 325.261,292.814 325.644,292.713 327.682 C 292.651 328.936,292.750 329.812,292.933 329.628 C 293.797 328.761,293.274 325.608,292.000 324.000 L 290.733 322.400 284.633 322.400 C 281.278 322.400,278.413 322.520,278.267 322.667 M157.600 323.487 C 157.600 323.743,157.780 324.064,158.000 324.200 C 158.220 324.336,158.421 324.842,158.446 325.324 C 158.482 325.989,158.537 326.033,158.674 325.507 C 158.774 325.127,158.573 324.411,158.228 323.918 C 157.883 323.425,157.600 323.231,157.600 323.487 M246.060 326.276 C 246.027 328.078,246.135 329.637,246.300 329.739 C 246.465 329.842,246.550 328.818,246.488 327.463 C 246.300 323.322,246.123 322.831,246.060 326.276 M300.870 326.800 C 300.756 331.269,299.933 332.886,296.642 335.100 C 295.579 335.815,294.896 336.400,295.124 336.400 C 298.059 336.400,301.258 331.215,301.098 326.717 L 300.966 323.000 300.870 326.800 M107.300 324.806 C 106.585 325.457,106.014 326.306,106.032 326.694 C 106.056 327.248,106.110 327.271,106.281 326.800 C 106.400 326.470,107.051 325.615,107.728 324.900 C 109.257 323.283,109.029 323.233,107.300 324.806 M122.731 324.715 C 123.319 325.329,124.014 326.184,124.276 326.615 C 124.539 327.047,124.764 327.216,124.776 326.991 C 124.806 326.472,122.456 323.600,122.002 323.600 C 121.815 323.600,122.143 324.102,122.731 324.715 M130.800 324.124 C 130.800 324.496,130.980 324.800,131.200 324.800 C 131.420 324.800,131.606 325.205,131.613 325.700 C 131.620 326.195,131.890 326.949,132.213 327.376 C 132.536 327.804,132.800 327.949,132.800 327.700 C 132.800 327.451,132.620 327.136,132.400 327.000 C 132.180 326.864,131.994 326.358,131.987 325.876 C 131.980 325.394,131.710 324.651,131.387 324.224 C 130.875 323.546,130.800 323.534,130.800 324.124 M192.859 324.200 C 193.221 324.640,193.605 325.360,193.712 325.800 C 193.900 326.569,193.909 326.568,193.954 325.762 C 193.979 325.301,193.595 324.581,193.100 324.162 C 192.207 323.406,192.205 323.407,192.859 324.200 M159.100 327.000 C 159.335 327.440,159.810 328.430,160.155 329.200 C 160.500 329.970,160.786 330.296,160.791 329.924 C 160.796 329.552,160.620 329.136,160.400 329.000 C 160.180 328.864,160.000 328.425,160.000 328.025 C 160.000 327.625,159.701 327.051,159.336 326.749 C 158.741 326.258,158.716 326.284,159.100 327.000 M149.254 327.700 C 149.225 328.305,149.020 328.800,148.800 328.800 C 148.580 328.800,148.400 329.019,148.400 329.286 C 148.400 329.604,148.619 329.553,149.035 329.137 C 149.400 328.772,149.593 328.098,149.489 327.551 C 149.323 326.672,149.305 326.683,149.254 327.700 M105.228 328.732 C 104.318 330.929,104.648 339.200,105.646 339.200 C 105.864 339.200,105.830 338.830,105.566 338.336 C 104.973 337.228,105.008 329.906,105.612 328.778 C 105.861 328.312,105.984 327.851,105.886 327.753 C 105.788 327.655,105.492 328.095,105.228 328.732 M124.800 327.887 C 124.800 328.143,124.980 328.464,125.200 328.600 C 125.420 328.736,125.621 329.242,125.646 329.724 C 125.682 330.389,125.737 330.433,125.874 329.907 C 125.974 329.527,125.773 328.811,125.428 328.318 C 125.083 327.825,124.800 327.631,124.800 327.887 M132.000 329.000 C 131.719 329.338,130.847 329.600,130.000 329.600 C 129.038 329.600,128.308 329.852,127.968 330.300 C 127.518 330.896,127.522 330.925,127.999 330.500 C 128.308 330.225,129.216 330.000,130.018 330.000 C 130.968 330.000,131.728 329.721,132.200 329.200 C 132.598 328.760,132.828 328.400,132.711 328.400 C 132.594 328.400,132.274 328.670,132.000 329.000 M141.700 329.493 C 140.988 331.011,141.084 331.633,141.813 330.233 C 142.148 329.591,142.372 328.922,142.311 328.746 C 142.250 328.570,141.975 328.906,141.700 329.493 M96.898 333.400 C 96.843 336.737,96.967 337.988,97.413 338.576 C 97.736 339.004,98.000 339.175,98.000 338.956 C 98.000 338.738,97.827 338.387,97.614 338.174 C 97.402 337.962,97.171 335.811,97.099 333.394 L 96.970 329.000 96.898 333.400 M231.080 330.281 C 231.345 330.470,231.627 331.868,231.711 333.411 L 231.863 336.200 231.831 333.232 C 231.807 330.951,231.661 330.226,231.200 330.102 C 230.777 329.987,230.742 330.040,231.080 330.281 M147.699 331.191 C 147.424 331.630,147.200 332.586,147.200 333.315 C 147.200 334.044,147.000 334.840,146.755 335.085 C 145.787 336.053,146.900 336.400,150.975 336.400 C 154.040 336.400,155.223 336.255,155.570 335.836 C 156.050 335.258,155.428 334.438,154.907 334.960 C 154.775 335.092,154.887 335.200,155.157 335.200 C 155.427 335.200,155.536 335.380,155.400 335.600 C 155.084 336.111,146.800 336.134,146.800 335.624 C 146.800 335.417,146.980 335.136,147.200 335.000 C 147.420 334.864,147.600 334.169,147.600 333.456 C 147.600 332.743,147.800 331.960,148.045 331.715 C 148.290 331.470,148.424 331.072,148.344 330.831 C 148.263 330.590,147.973 330.751,147.699 331.191 M201.273 330.887 C 201.013 331.147,200.800 331.625,200.800 331.949 C 200.800 332.272,200.485 332.908,200.100 333.362 C 199.451 334.127,199.450 334.148,200.092 333.651 C 200.781 333.117,202.119 330.786,201.875 330.542 C 201.804 330.471,201.534 330.626,201.273 330.887 M290.744 331.187 C 290.225 331.619,289.943 331.979,290.117 331.987 C 290.291 331.994,290.820 331.640,291.292 331.200 C 292.399 330.169,291.979 330.158,290.744 331.187 M190.400 331.400 C 190.056 331.815,190.041 332.000,190.351 332.000 C 190.598 332.000,190.800 331.832,190.800 331.627 C 190.800 331.421,191.295 331.178,191.900 331.087 L 193.000 330.920 191.949 330.860 C 191.371 330.827,190.674 331.070,190.400 331.400 M140.502 332.100 C 139.786 333.004,139.109 334.504,139.535 334.240 C 139.927 333.998,141.274 331.600,141.018 331.600 C 140.952 331.600,140.720 331.825,140.502 332.100 M153.602 331.854 C 153.601 332.104,153.869 332.824,154.198 333.454 C 154.526 334.084,154.796 334.396,154.798 334.146 C 154.799 333.896,154.531 333.176,154.202 332.546 C 153.874 331.916,153.604 331.604,153.602 331.854 M162.800 334.751 C 162.800 334.998,162.980 335.200,163.200 335.200 C 163.420 335.200,163.600 335.538,163.600 335.951 C 163.600 336.364,163.915 336.940,164.300 337.232 C 164.896 337.682,164.925 337.678,164.500 337.201 C 164.225 336.892,164.000 336.338,164.000 335.969 C 164.000 335.600,163.730 335.074,163.400 334.800 C 162.985 334.456,162.800 334.441,162.800 334.751 M138.372 335.848 C 138.120 336.482,137.740 337.335,137.526 337.744 C 137.235 338.303,137.270 338.444,137.669 338.312 C 137.961 338.216,138.262 337.701,138.338 337.169 C 138.414 336.636,138.665 335.971,138.895 335.690 C 139.126 335.410,139.205 335.072,139.072 334.939 C 138.939 334.806,138.624 335.215,138.372 335.848 M125.848 336.500 C 125.778 336.775,125.525 337.598,125.284 338.329 C 124.909 339.472,124.928 339.591,125.424 339.180 C 125.741 338.917,126.000 338.184,126.000 337.551 C 126.000 336.502,126.124 336.400,127.400 336.400 C 128.170 336.400,128.800 336.580,128.800 336.800 C 128.800 337.020,129.104 337.200,129.476 337.200 C 130.066 337.200,130.054 337.125,129.376 336.613 C 128.423 335.892,126.022 335.815,125.848 336.500 M195.800 336.400 C 195.664 336.620,195.034 336.800,194.400 336.800 C 193.766 336.800,193.159 336.942,193.052 337.116 C 192.709 337.671,195.553 337.139,196.035 336.558 C 196.290 336.251,196.397 336.000,196.273 336.000 C 196.149 336.000,195.936 336.180,195.800 336.400 M213.350 340.200 C 213.351 342.620,213.416 343.558,213.496 342.285 C 213.576 341.012,213.575 339.032,213.494 337.885 C 213.414 336.738,213.349 337.780,213.350 340.200 M246.267 336.267 C 245.898 336.635,245.929 343.909,246.300 344.138 C 246.465 344.240,246.600 342.451,246.600 340.162 C 246.600 337.873,246.585 336.000,246.567 336.000 C 246.548 336.000,246.413 336.120,246.267 336.267 M291.867 337.067 C 291.720 337.213,291.600 337.608,291.600 337.943 C 291.600 338.467,291.670 338.461,292.100 337.901 C 292.375 337.543,293.140 337.176,293.800 337.085 C 294.924 336.930,294.910 336.916,293.567 336.860 C 292.778 336.827,292.013 336.920,291.867 337.067 M132.612 337.681 C 132.755 338.056,132.585 338.771,132.236 339.270 C 131.886 339.770,131.600 340.577,131.600 341.065 C 131.600 341.553,131.420 342.064,131.200 342.200 C 130.980 342.336,130.800 342.651,130.800 342.900 C 130.800 343.620,131.973 341.873,131.987 341.132 C 131.994 340.765,132.314 339.918,132.697 339.250 C 133.270 338.252,133.302 337.942,132.874 337.517 C 132.447 337.093,132.399 337.123,132.612 337.681 M192.400 338.258 C 192.400 338.474,192.985 339.179,193.700 339.825 L 195.000 341.000 193.800 339.602 C 193.140 338.833,192.555 338.128,192.500 338.035 C 192.445 337.943,192.400 338.043,192.400 338.258 M284.215 340.412 C 285.527 341.849,286.682 342.967,286.781 342.898 C 286.881 342.828,285.808 341.652,284.397 340.285 L 281.831 337.800 284.215 340.412 M164.802 339.054 C 164.801 339.304,165.069 340.024,165.398 340.654 C 165.726 341.284,165.996 341.596,165.998 341.346 C 165.999 341.096,165.731 340.376,165.402 339.746 C 165.074 339.116,164.804 338.804,164.802 339.054 M184.293 339.600 C 184.670 340.040,185.116 340.400,185.285 340.400 C 185.454 340.400,185.284 340.040,184.907 339.600 C 184.530 339.160,184.084 338.800,183.915 338.800 C 183.746 338.800,183.916 339.160,184.293 339.600 M106.046 340.238 C 106.021 340.699,106.405 341.419,106.900 341.838 C 107.793 342.594,107.795 342.593,107.141 341.800 C 106.779 341.360,106.395 340.640,106.288 340.200 C 106.100 339.431,106.091 339.432,106.046 340.238 M136.480 340.080 C 136.216 340.344,136.000 340.848,136.000 341.200 C 136.000 341.552,135.775 342.092,135.500 342.401 C 135.075 342.878,135.104 342.882,135.700 342.432 C 136.085 342.140,136.400 341.600,136.400 341.231 C 136.400 340.862,136.616 340.344,136.880 340.080 C 137.144 339.816,137.270 339.600,137.160 339.600 C 137.050 339.600,136.744 339.816,136.480 340.080 M124.124 340.500 C 123.946 340.775,123.617 341.356,123.392 341.792 C 123.168 342.228,122.568 342.792,122.058 343.046 C 121.549 343.300,120.923 343.729,120.666 344.001 C 120.351 344.334,120.524 344.317,121.200 343.947 C 122.804 343.069,123.568 342.347,124.172 341.135 C 124.747 339.984,124.716 339.585,124.124 340.500 M293.600 341.301 C 293.600 341.588,293.915 342.110,294.300 342.461 C 294.685 342.812,296.780 344.922,298.956 347.150 L 302.912 351.200 298.136 351.200 C 294.881 351.200,293.181 351.041,292.799 350.700 C 292.322 350.275,292.318 350.304,292.768 350.900 C 293.339 351.655,302.514 351.987,302.957 351.269 C 303.070 351.087,302.072 349.872,300.739 348.569 C 299.406 347.266,297.255 344.980,295.958 343.490 C 294.661 341.999,293.600 341.014,293.600 341.301 M186.400 341.433 C 186.400 341.577,186.940 342.309,187.600 343.061 C 188.260 343.813,188.800 344.248,188.800 344.028 C 188.800 343.808,188.260 343.075,187.600 342.400 C 186.940 341.725,186.400 341.290,186.400 341.433 M194.806 341.509 C 194.816 341.996,199.200 346.561,199.200 346.084 C 199.200 345.840,198.975 345.496,198.700 345.320 C 198.425 345.144,197.435 344.149,196.500 343.109 C 195.565 342.069,194.803 341.349,194.806 341.509 M108.714 343.572 C 109.217 344.059,109.808 344.397,110.029 344.324 C 110.249 344.250,109.838 343.852,109.115 343.438 L 107.800 342.686 108.714 343.572 M287.208 343.271 C 287.204 343.421,287.425 343.781,287.700 344.072 C 287.975 344.362,288.785 345.282,289.500 346.114 C 290.215 346.947,290.793 347.487,290.785 347.314 C 290.765 346.914,287.219 342.907,287.208 343.271 M100.015 344.200 C 100.017 344.420,100.386 345.050,100.836 345.600 C 101.379 346.264,101.515 346.331,101.240 345.800 C 100.566 344.495,100.012 343.772,100.015 344.200 M128.500 345.981 C 126.508 348.261,126.206 349.097,128.100 347.092 C 129.965 345.116,130.837 343.997,130.496 344.018 C 130.333 344.028,129.435 344.911,128.500 345.981 M134.500 345.093 C 133.788 346.611,133.884 347.233,134.613 345.833 C 134.948 345.191,135.172 344.522,135.111 344.346 C 135.050 344.170,134.775 344.506,134.500 345.093 M158.809 344.476 C 158.804 344.848,158.980 345.264,159.200 345.400 C 159.420 345.536,159.600 345.975,159.600 346.375 C 159.600 346.775,159.899 347.349,160.264 347.651 C 160.859 348.142,160.884 348.116,160.500 347.400 C 160.265 346.960,159.790 345.970,159.445 345.200 C 159.100 344.430,158.814 344.104,158.809 344.476 M112.162 344.890 C 112.324 345.699,118.128 345.810,118.787 345.016 C 119.103 344.634,119.136 344.400,118.873 344.400 C 118.639 344.400,118.336 344.580,118.200 344.800 C 117.874 345.328,112.525 345.319,112.263 344.790 C 112.151 344.565,112.106 344.610,112.162 344.890 M142.473 345.287 C 142.213 345.547,142.000 346.242,142.000 346.831 C 142.000 347.420,141.730 348.126,141.400 348.400 C 141.070 348.674,140.800 349.200,140.800 349.569 C 140.800 350.876,139.900 351.199,136.020 351.283 L 132.200 351.366 135.951 351.499 C 139.926 351.639,141.200 351.175,141.200 349.587 C 141.200 349.208,141.470 348.674,141.800 348.400 C 142.130 348.126,142.400 347.399,142.400 346.784 C 142.400 346.170,142.625 345.586,142.900 345.488 C 143.175 345.390,143.298 345.198,143.173 345.061 C 143.049 344.925,142.734 345.026,142.473 345.287 M189.634 346.247 C 190.165 346.933,190.680 347.423,190.779 347.335 C 190.877 347.247,190.443 346.686,189.813 346.088 L 188.669 345.000 189.634 346.247 M132.553 348.970 C 132.192 349.749,132.212 349.894,132.653 349.724 C 132.954 349.609,133.200 349.174,133.200 348.757 C 133.200 347.770,133.093 347.805,132.553 348.970 M290.825 348.200 C 290.825 348.420,291.090 348.949,291.413 349.376 C 291.736 349.804,292.000 349.973,292.000 349.753 C 292.000 349.533,291.736 349.004,291.413 348.576 C 291.090 348.149,290.825 347.980,290.825 348.200 M168.000 349.151 C 168.000 349.398,168.180 349.600,168.400 349.600 C 168.620 349.600,168.800 349.953,168.800 350.384 C 168.800 351.091,168.463 351.183,165.399 351.309 L 161.998 351.450 165.499 351.425 C 169.194 351.399,170.303 350.614,168.619 349.216 C 168.200 348.868,168.000 348.847,168.000 349.151 M123.600 350.800 C 123.600 351.020,123.082 351.200,122.449 351.200 C 121.816 351.200,121.060 351.515,120.768 351.900 C 120.318 352.496,120.322 352.525,120.799 352.100 C 121.108 351.825,121.819 351.594,122.380 351.587 C 122.941 351.580,123.749 351.310,124.176 350.987 C 124.854 350.475,124.866 350.400,124.276 350.400 C 123.904 350.400,123.600 350.580,123.600 350.800 M193.702 350.800 C 193.836 351.293,194.790 351.404,199.033 351.420 L 204.200 351.440 199.216 351.307 C 195.891 351.218,194.116 351.012,193.885 350.687 C 193.637 350.337,193.585 350.369,193.702 350.800 M108.400 351.493 C 108.950 351.594,109.625 351.861,109.900 352.087 C 110.235 352.363,110.400 352.364,110.400 352.092 C 110.400 351.578,109.394 351.184,108.267 351.254 C 107.512 351.302,107.529 351.333,108.400 351.493 M113.116 352.697 C 114.499 352.775,116.659 352.774,117.916 352.695 C 119.172 352.616,118.040 352.552,115.400 352.553 C 112.760 352.553,111.732 352.618,113.116 352.697 " stroke="none" fill="#84741c" fill-rule="evenodd"></path></g></svg>