<?xml version="1.0" encoding="utf-8"?>
<!-- Generator: Adobe Illustrator 26.5.3, SVG Export Plug-In . SVG Version: 6.00 Build 0)  -->
<svg version="1.1" id="Layer_1" xmlns="http://www.w3.org/2000/svg" xmlns:xlink="http://www.w3.org/1999/xlink" x="0px" y="0px"
	 viewBox="0 0 239.2 267.1" style="enable-background:new 0 0 239.2 267.1;" xml:space="preserve">
<style type="text/css">
	.st0{fill:#1D1D1F;}
	.st1{fill:#FFCB3B;}
	.st2{fill:#4DD7BE;}
	.st3{fill:#8F66FF;}
	.st4{fill:#FD7E40;}
</style>
<g>
	<path class="st0" d="M160.4,46.6h-82c-17.7,0-32,14.3-32,32v83c0,17.7,14.3,32,32,32h29.1c3.1,0,7.7,0.8,11.6,1.6
		c1.9,0.4,3.7,0.8,4.9,1.1c0.6,0.2,1.1,0.3,1.5,0.4c0.2,0,0.3,0.1,0.4,0.1h0.1l0,0h0.1c0.1,0,0.3,0.1,0.5,0.2c0.4,0.2,1,0.4,1.8,0.7
		c1.6,0.6,3.8,1.4,6.6,2.4c5.5,2,12.9,4.7,20.5,7.4c15.3,5.5,31.6,11.5,35.6,13l1.4,0.5v-1.4v-141C192.4,60.9,178.1,46.6,160.4,46.6
		z"/>
	<g>
		<path class="st1" d="M91.9,69.6L91.9,69.6c12.4,0,22.5,10.1,22.5,22.5l0,0c0,12.4-10.1,22.5-22.5,22.5l0,0
			c-12.4,0-22.5-10.1-22.5-22.5l0,0C69.4,79.7,79.5,69.6,91.9,69.6z"/>
		<path class="st2" d="M156.4,121.6c-17.6,0-31.9,13.7-32.9,31l-0.1,2v14v1l46,17v-17v-6v-11v-15v-16H156.4z"/>
		<path class="st3" d="M123.4,69.6h26c11,0,20,9,20,20v25h-46V69.6z"/>
		<path class="st4" d="M89.4,169.6h25c0-0.3,0-0.7,0-1v-14c0-18.2-14.8-33-33-33h-12v28C69.4,160.6,78.4,169.6,89.4,169.6z"/>
	</g>
</g>
</svg>
